<svg width="24" height="24" viewBox="0 0 24 24" fill="none" xmlns="http://www.w3.org/2000/svg">
<path opacity="0.983" fill-rule="evenodd" clip-rule="evenodd" d="M12.8672 1.47669C13.2076 1.42935 13.5201 1.49966 13.8047 1.68762C15.8441 2.82452 17.8909 3.94953 19.9453 5.06262C20.4201 5.43861 20.5217 5.89953 20.25 6.44544C20.1797 6.57823 20.0781 6.67981 19.9453 6.75012C17.6539 7.74739 15.357 8.73176 13.0547 9.70325C12.6023 9.79344 12.282 9.62937 12.0938 9.21106C12.0703 8.66441 12.0625 8.11751 12.0703 7.57044C9.09354 7.49225 6.48415 8.42192 4.24222 10.3595C4.02927 10.5646 3.82614 10.7755 3.63284 10.9923C3.46846 10.088 3.57003 9.21298 3.93753 8.36731C4.85586 6.41778 6.30115 5.0037 8.27347 4.12512C9.57729 3.57842 10.9367 3.30498 12.3516 3.30481C12.3333 2.84858 12.3567 2.39545 12.4219 1.94544C12.5167 1.73356 12.6651 1.57731 12.8672 1.47669Z" fill="#FFD400"/>
<path opacity="0.951" fill-rule="evenodd" clip-rule="evenodd" d="M6.63281 9.44515C6.67388 9.43901 6.70514 9.45462 6.72656 9.49202C6.4283 10.2789 6.23297 11.0914 6.14062 11.9295C6.05048 12.7079 6.00361 13.4892 6 14.2733C5.88403 14.4523 5.71997 14.5226 5.50781 14.4842C4.71384 13.7906 4.15133 12.9391 3.82031 11.9295C4.61353 10.9329 5.55103 10.1048 6.63281 9.44515Z" fill="#FFD400"/>
<path opacity="0.951" fill-rule="evenodd" clip-rule="evenodd" d="M18.2109 9.4454C18.3276 9.43593 18.437 9.45937 18.5391 9.51572C19.2878 10.2105 19.819 11.0464 20.1328 12.0235C19.3393 13.0358 18.3862 13.864 17.2734 14.5079C17.7455 12.9457 17.972 11.3363 17.9531 9.67978C18.005 9.55729 18.0909 9.47915 18.2109 9.4454Z" fill="#FFD400"/>
<path opacity="0.983" fill-rule="evenodd" clip-rule="evenodd" d="M20.2734 12.9609C20.3341 13.0335 20.3654 13.1272 20.3672 13.2422C20.4476 14.0515 20.3304 14.8327 20.0156 15.5859C19.0151 17.7114 17.4135 19.188 15.2109 20.0156C14.0452 20.4391 12.842 20.65 11.6016 20.6484C11.6093 21.0394 11.6016 21.43 11.5781 21.8203C11.4372 22.3716 11.0857 22.5825 10.5234 22.4531C8.35907 21.2537 6.18721 20.0662 4.00781 18.8906C3.53301 18.5146 3.43145 18.0537 3.70312 17.5078C3.77343 17.375 3.875 17.2734 4.00781 17.2031C6.29925 16.2059 8.59612 15.2215 10.8984 14.25C11.3509 14.1598 11.6712 14.3239 11.8594 14.7422C11.8828 15.2888 11.8906 15.8357 11.8828 16.3828C14.8598 16.461 17.4692 15.5312 19.7109 13.5937C19.9256 13.4028 20.1131 13.1918 20.2734 12.9609Z" fill="#FFD400"/>
</svg>
