<svg width="24" height="24" viewBox="0 0 24 24" fill="none" xmlns="http://www.w3.org/2000/svg">
<path opacity="0.991" fill-rule="evenodd" clip-rule="evenodd" d="M1.66406 1.47656C2.53907 1.47656 3.41406 1.47656 4.28906 1.47656C4.28125 2.86727 4.28906 4.2579 4.3125 5.64844C4.3662 5.78798 4.46776 5.86612 4.61719 5.88281C5.26027 5.5574 5.89308 5.21362 6.51563 4.85156C7.10461 5.18123 7.69055 5.51719 8.27344 5.85937C8.43867 5.89022 8.57152 5.83551 8.67188 5.69531C8.74144 4.29318 8.76488 2.88693 8.74219 1.47656C9.60169 1.46875 10.4611 1.47657 11.3203 1.5C11.375 1.55469 11.4297 1.60937 11.4844 1.66406C11.5156 4.88283 11.5156 8.10154 11.4844 11.3203C11.4275 11.3929 11.3572 11.4476 11.2734 11.4844C8.07033 11.5156 4.86717 11.5156 1.66406 11.4844C1.60937 11.4297 1.55469 11.375 1.5 11.3203C1.46875 8.10154 1.46875 4.88283 1.5 1.66406C1.53233 1.57733 1.58702 1.51483 1.66406 1.47656ZM8.41406 9.02343C9.02363 9.01561 9.633 9.02343 10.2422 9.04687C10.5062 9.30408 10.475 9.52284 10.1484 9.70312C9.60155 9.73439 9.05471 9.73439 8.50781 9.70312C8.17013 9.52204 8.13891 9.2955 8.41406 9.02343Z" fill="#FFD400"/>
<path opacity="0.966" fill-rule="evenodd" clip-rule="evenodd" d="M4.99218 1.47656C6.00782 1.47656 7.02342 1.47656 8.03906 1.47656C8.05467 2.61762 8.03906 3.75824 7.99218 4.89844C7.51448 4.5991 7.02229 4.33348 6.51562 4.10156C6.00243 4.32308 5.51024 4.58871 5.03906 4.89844C4.99218 3.75824 4.97657 2.61762 4.99218 1.47656Z" fill="#FFD400"/>
<path opacity="0.969" fill-rule="evenodd" clip-rule="evenodd" d="M16.9453 2.46094C17.0078 2.46094 17.0703 2.46094 17.1328 2.46094C17.1406 3.75791 17.1328 5.05477 17.1094 6.35156C16.2025 7.26628 15.2884 8.17252 14.3672 9.07031C13.2587 7.58569 13.1415 6.0232 14.0156 4.38281C14.7047 3.30025 15.6812 2.65962 16.9453 2.46094Z" fill="#FFD400"/>
<path opacity="0.976" fill-rule="evenodd" clip-rule="evenodd" d="M17.8359 2.46094C19.8848 2.76761 21.0957 3.93948 21.4687 5.97656C21.5626 6.67819 21.4689 7.35005 21.1875 7.99219C20.0823 7.43569 18.9807 6.87319 17.8828 6.30469C17.8359 5.02383 17.8203 3.74257 17.8359 2.46094Z" fill="#FFD400"/>
<path opacity="0.967" fill-rule="evenodd" clip-rule="evenodd" d="M17.5078 6.91406C18.6147 7.46752 19.7241 8.02219 20.8359 8.57812C20.8805 8.61178 20.8883 8.65083 20.8594 8.69531C19.58 10.3807 17.9315 10.8885 15.9141 10.2188C15.5549 10.0706 15.2268 9.87534 14.9297 9.63281C14.8818 9.60928 14.874 9.57806 14.9062 9.53906C15.7829 8.67023 16.6501 7.79527 17.5078 6.91406Z" fill="#FFD400"/>
<path opacity="0.992" fill-rule="evenodd" clip-rule="evenodd" d="M1.66406 12.4453C2.53907 12.4453 3.41406 12.4453 4.28906 12.4453C4.28125 13.8361 4.28906 15.2266 4.3125 16.6172C4.37183 16.7641 4.4812 16.8423 4.64063 16.8516C5.27302 16.5354 5.898 16.2073 6.51563 15.8672C7.09449 16.1684 7.66477 16.4888 8.22656 16.8281C8.4735 16.8961 8.63756 16.8102 8.71875 16.5703C8.74219 15.1954 8.75002 13.8204 8.74219 12.4453C9.60169 12.4375 10.4611 12.4453 11.3203 12.4688C11.375 12.5235 11.4297 12.5781 11.4844 12.6328C11.5156 15.8516 11.5156 19.0703 11.4844 22.2891C11.4297 22.3438 11.375 22.3984 11.3203 22.4531C8.10155 22.4844 4.88283 22.4844 1.66406 22.4531C1.57813 22.4297 1.52344 22.375 1.5 22.2891C1.46875 19.0703 1.46875 15.8516 1.5 12.6328C1.56448 12.5763 1.61917 12.5139 1.66406 12.4453ZM8.46094 19.9922C9.03928 19.9844 9.61739 19.9922 10.1953 20.0156C10.4629 20.1818 10.4941 20.385 10.2891 20.625C10.2422 20.6406 10.1953 20.6563 10.1484 20.6719C9.58594 20.7031 9.02344 20.7031 8.46094 20.6719C8.15152 20.4455 8.15152 20.219 8.46094 19.9922Z" fill="#FFD400"/>
<path opacity="0.963" fill-rule="evenodd" clip-rule="evenodd" d="M4.99218 12.4453C6.00782 12.4453 7.02342 12.4453 8.03906 12.4453C8.03906 13.5859 8.03906 14.7266 8.03906 15.8672C7.52395 15.6213 7.0161 15.3557 6.51562 15.0703C6.01443 15.317 5.52224 15.5827 5.03906 15.8672C4.99218 14.727 4.97657 13.5863 4.99218 12.4453Z" fill="#FFD400"/>
<path opacity="0.992" fill-rule="evenodd" clip-rule="evenodd" d="M12.6328 12.4453C13.5078 12.4453 14.3828 12.4453 15.2578 12.4453C15.25 13.8204 15.2578 15.1954 15.2813 16.5703C15.3974 16.8492 15.5927 16.9195 15.8672 16.7813C16.3977 16.4575 16.9368 16.1529 17.4844 15.8672C18.0713 16.1803 18.6572 16.5006 19.2422 16.8281C19.3992 16.8717 19.532 16.8327 19.6406 16.7109C19.7102 15.2932 19.7336 13.8713 19.7109 12.4453C20.5704 12.4375 21.4299 12.4453 22.2891 12.4688C22.3438 12.5235 22.3984 12.5781 22.4531 12.6328C22.4844 15.8516 22.4844 19.0703 22.4531 22.2891C22.4297 22.375 22.375 22.4297 22.2891 22.4531C19.0703 22.4844 15.8516 22.4844 12.6328 22.4531C12.5781 22.3984 12.5235 22.3438 12.4688 22.2891C12.4375 19.0703 12.4375 15.8516 12.4688 12.6328C12.5333 12.5763 12.5879 12.5139 12.6328 12.4453ZM19.4297 19.9922C20.008 19.9844 20.5862 19.9922 21.1641 20.0156C21.4766 20.2344 21.4766 20.4531 21.1641 20.6719C20.6016 20.7031 20.0391 20.7031 19.4766 20.6719C19.1193 20.4676 19.1036 20.2411 19.4297 19.9922Z" fill="#FFD400"/>
<path opacity="0.963" fill-rule="evenodd" clip-rule="evenodd" d="M15.9609 12.4453C16.9766 12.4453 17.9922 12.4453 19.0078 12.4453C19.0234 13.5863 19.0078 14.727 18.9609 15.8672C18.4778 15.5827 17.9856 15.317 17.4844 15.0703C16.9839 15.3557 16.476 15.6213 15.9609 15.8672C15.9609 14.7266 15.9609 13.5859 15.9609 12.4453Z" fill="#FFD400"/>
</svg>
