<svg width="24" height="24" viewBox="0 0 24 24" fill="none" xmlns="http://www.w3.org/2000/svg">
<path opacity="0.971" fill-rule="evenodd" clip-rule="evenodd" d="M11.8828 1.75774C12.0433 1.74029 12.1604 1.80279 12.2344 1.94524C12.5203 2.57182 12.825 3.189 13.1484 3.7968C13.8791 3.9347 14.6135 4.0597 15.3515 4.1718C15.4783 4.25712 15.5173 4.3743 15.4687 4.52336C14.9506 5.04152 14.435 5.55714 13.9219 6.07024C14.0001 6.76671 14.1017 7.462 14.2265 8.15617C14.2378 8.42589 14.1127 8.51964 13.8515 8.43742C13.2339 8.10513 12.6089 7.78483 11.9765 7.47649C11.3442 7.78483 10.7192 8.10513 10.1015 8.43742C9.96809 8.48167 9.85091 8.45824 9.74999 8.36711C9.71872 8.22649 9.71872 8.08586 9.74999 7.94524C9.87463 7.32255 9.96838 6.69752 10.0312 6.07024C9.51814 5.55714 9.00252 5.04152 8.48436 4.52336C8.4358 4.3743 8.47484 4.25712 8.60155 4.1718C9.34105 4.06843 10.0754 3.94342 10.8047 3.7968C11.1475 3.10311 11.5069 2.42342 11.8828 1.75774Z" fill="white"/>
<path opacity="0.971" fill-rule="evenodd" clip-rule="evenodd" d="M5.08593 3.58586C5.22022 3.56499 5.33741 3.59624 5.43749 3.67961C5.75549 4.33909 6.09144 4.98751 6.4453 5.62492C7.14833 5.73428 7.85146 5.84364 8.55468 5.95304C8.72361 6.01558 8.77832 6.13276 8.71874 6.30461C8.20311 6.82023 7.68749 7.33586 7.17186 7.85148C7.25521 8.56272 7.35674 9.27362 7.47655 9.98429C7.49113 10.2195 7.38177 10.3132 7.14843 10.2655C6.50778 9.92959 5.86719 9.59368 5.22655 9.25773C4.58592 9.59368 3.9453 9.92959 3.30468 10.2655C3.19122 10.2977 3.08966 10.2743 2.99999 10.1952C2.96874 10.0546 2.96874 9.91398 2.99999 9.77336C3.11959 9.13412 3.21334 8.49353 3.28124 7.85148C2.76561 7.33586 2.24999 6.82023 1.73436 6.30461C1.68559 6.15761 1.72465 6.04042 1.85155 5.95304C2.57238 5.85676 3.29113 5.7474 4.0078 5.62492C4.37374 4.94767 4.7331 4.26799 5.08593 3.58586Z" fill="white"/>
<path opacity="0.971" fill-rule="evenodd" clip-rule="evenodd" d="M18.5859 3.58586C18.7202 3.56499 18.8374 3.59624 18.9375 3.67961C19.2555 4.33909 19.5914 4.98751 19.9453 5.62492C20.6483 5.73428 21.3515 5.84364 22.0547 5.95304C22.2236 6.01558 22.2783 6.13276 22.2187 6.30461C21.7031 6.82023 21.1875 7.33586 20.6719 7.85148C20.7552 8.56272 20.8567 9.27362 20.9766 9.98429C20.9911 10.2195 20.8818 10.3132 20.6484 10.2655C20.0078 9.92959 19.3672 9.59368 18.7266 9.25773C18.0859 9.59368 17.4453 9.92959 16.8047 10.2655C16.6912 10.2977 16.5897 10.2743 16.5 10.1952C16.4687 10.0546 16.4687 9.91398 16.5 9.77336C16.6196 9.13412 16.7134 8.49353 16.7812 7.85148C16.2656 7.33586 15.75 6.82023 15.2344 6.30461C15.1856 6.15761 15.2247 6.04042 15.3516 5.95304C16.0719 5.85381 16.7907 5.74445 17.5078 5.62492C17.8738 4.94767 18.2331 4.26799 18.5859 3.58586Z" fill="white"/>
<path opacity="0.992" fill-rule="evenodd" clip-rule="evenodd" d="M11.6484 9.72659C12.7687 9.65262 13.5265 10.137 13.9219 11.1797C13.9929 11.5204 14.0085 11.8641 13.9688 12.211C13.7553 13.1559 13.435 14.0622 13.0078 14.9297C14.3982 14.9688 15.7888 14.9922 17.1797 15C17.8258 15.2842 18.0836 15.7764 17.9531 16.4766C17.596 18.184 17.221 19.8871 16.8281 21.586C16.6226 22.0258 16.2866 22.3149 15.8203 22.4532C14.1328 22.4844 12.4453 22.4844 10.7578 22.4532C9.73364 22.2848 8.88989 21.8004 8.22656 21C7.85189 20.9766 7.47689 20.9688 7.10156 20.9766C7.10156 18.9766 7.10156 16.9766 7.10156 14.9766C7.38848 14.9958 7.66973 14.9724 7.94531 14.9063C9.24206 13.953 10.1873 12.7264 10.7812 11.2266C10.9219 10.836 11.0625 10.4453 11.2031 10.0547C11.3217 9.89604 11.4701 9.78668 11.6484 9.72659Z" fill="white"/>
<path opacity="0.998" fill-rule="evenodd" clip-rule="evenodd" d="M3.16406 14.2266C4.0392 14.2187 4.91419 14.2266 5.78906 14.25C5.87499 14.2734 5.92969 14.3281 5.95313 14.4141C5.98439 16.7891 5.98439 19.1641 5.95313 21.5391C5.92969 21.625 5.87499 21.6797 5.78906 21.7031C4.91405 21.7344 4.03907 21.7344 3.16406 21.7031C3.07813 21.6797 3.02344 21.625 3 21.5391C2.96875 19.1641 2.96875 16.7891 3 14.4141C3.03233 14.3274 3.08702 14.2648 3.16406 14.2266Z" fill="white"/>
</svg>
