<svg width="18" height="24" viewBox="0 0 18 24" fill="none" xmlns="http://www.w3.org/2000/svg">
<path opacity="0.991" fill-rule="evenodd" clip-rule="evenodd" d="M8.74196 -0.0234375C8.91385 -0.0234375 9.08569 -0.0234375 9.25759 -0.0234375C9.44026 0.0884058 9.60432 0.229031 9.74977 0.398438C11.7515 3.30767 13.6421 6.29203 15.4216 9.35156C16.2513 10.8251 16.9076 12.372 17.3904 13.9922C17.8442 16.6771 17.188 19.0522 15.4216 21.1172C13.9132 22.7347 12.0616 23.6879 9.86696 23.9766C9.27319 23.9766 8.67948 23.9766 8.08571 23.9766C4.12459 23.3516 1.61676 21.1016 0.562273 17.2266C0.313878 16.1464 0.313878 15.0683 0.562273 13.9922C1.01865 12.4386 1.64366 10.9542 2.43727 9.53906C4.23024 6.40519 6.15212 3.35831 8.2029 0.398438C8.36457 0.228589 8.54429 0.0879642 8.74196 -0.0234375ZM15.1638 14.6953C15.7884 14.7495 16.1477 15.0855 16.242 15.7031C16.0171 18.4372 14.7203 20.4684 12.3513 21.7969C11.6068 21.8807 11.1693 21.5526 11.0388 20.8125C11.0578 20.4814 11.1984 20.2157 11.4607 20.0156C13.2342 18.9783 14.1796 17.4236 14.2966 15.3516C14.4735 14.9786 14.7626 14.7599 15.1638 14.6953Z" fill="#FFD400"/>
</svg>
