<svg width="24" height="24" viewBox="0 0 24 24" fill="none" xmlns="http://www.w3.org/2000/svg">
<path opacity="0.99" fill-rule="evenodd" clip-rule="evenodd" d="M11.2735 0.726715C13.6012 0.54288 15.3746 1.43351 16.5938 3.39859C17.2733 4.73289 17.4139 6.12353 17.0157 7.57047C16.2698 9.613 14.8244 10.824 12.6797 11.2033C10.351 11.41 8.5776 10.5272 7.35941 8.55484C6.67991 7.22111 6.53929 5.83046 6.93754 4.38296C7.69134 2.33984 9.13663 1.12109 11.2735 0.726715Z" fill="#FFD400"/>
<path opacity="0.997" fill-rule="evenodd" clip-rule="evenodd" d="M7.52344 12.7266C10.4922 12.7187 13.461 12.7266 16.4297 12.75C19.0719 13.1734 20.7829 14.6656 21.5625 17.2266C21.6215 17.4901 21.6683 17.7557 21.7031 18.0234C21.7344 19.6016 21.7344 21.1797 21.7031 22.7578C21.6172 22.9688 21.4688 23.1172 21.2578 23.2031C15.0703 23.2344 8.88281 23.2344 2.69531 23.2031C2.48438 23.1172 2.33594 22.9688 2.25 22.7578C2.21875 21.1641 2.21875 19.5703 2.25 17.9766C2.69499 15.3597 4.18719 13.6644 6.72656 12.8906C6.99914 12.8377 7.26474 12.7831 7.52344 12.7266Z" fill="#FFD400"/>
</svg>
