<svg width="24" height="24" viewBox="0 0 24 24" fill="none" xmlns="http://www.w3.org/2000/svg">
<g clip-path="url(#clip0_2002_912)">
<path opacity="0.979" fill-rule="evenodd" clip-rule="evenodd" d="M11.6954 -0.0234375C11.8829 -0.0234375 12.0704 -0.0234375 12.2579 -0.0234375C12.4599 0.0771891 12.6084 0.233439 12.7032 0.445313C12.9628 1.18512 13.2362 1.9195 13.5235 2.64844C14.3506 2.72611 15.1787 2.79642 16.0079 2.85938C16.4289 3.06905 16.5773 3.40499 16.4532 3.86719C16.4219 3.92969 16.3907 3.99219 16.3594 4.05469C15.7203 4.61214 15.0875 5.17463 14.461 5.74219C14.6862 6.56489 14.8893 7.39303 15.0704 8.22656C14.9527 8.90991 14.562 9.13645 13.8985 8.90625C13.2771 8.45888 12.6442 8.02922 12 7.61719C11.3323 8.0175 10.6838 8.4472 10.0547 8.90625C9.39117 9.13645 9.00056 8.90991 8.88286 8.22656C9.07912 7.3793 9.27441 6.53555 9.4688 5.69531C8.94352 5.21681 8.40445 4.75589 7.85161 4.3125C7.45739 3.98278 7.37142 3.58434 7.5938 3.11719C7.68464 2.99504 7.80183 2.9091 7.94536 2.85938C8.77505 2.80277 9.60314 2.73246 10.4297 2.64844C10.7298 1.84973 11.0345 1.05285 11.3438 0.257813C11.4429 0.134963 11.5601 0.0412135 11.6954 -0.0234375Z" fill="#FFD400"/>
<path opacity="0.993" fill-rule="evenodd" clip-rule="evenodd" d="M16.5234 23.9766C13.4922 23.9766 10.4609 23.9766 7.42967 23.9766C7.20903 23.8727 7.06063 23.7009 6.98436 23.4609C6.93786 19.427 6.95347 15.3958 7.03123 11.3672C7.14631 11.1493 7.32598 11.0164 7.5703 10.9688C10.5078 10.9375 13.4453 10.9375 16.3828 10.9688C16.6271 11.0164 16.8068 11.1493 16.9219 11.3672C16.9996 15.3958 17.0152 19.427 16.9687 23.4609C16.8845 23.6945 16.736 23.8664 16.5234 23.9766ZM11.6953 14.9766C12.2625 14.9272 12.5984 15.1772 12.7031 15.7266C12.7474 16.9782 12.7318 18.2282 12.6562 19.4766C12.3796 19.9694 11.9968 20.0709 11.5078 19.7813C11.4086 19.7001 11.3383 19.5985 11.2969 19.4766C11.2373 18.3845 11.2061 17.2907 11.2031 16.1953C10.8933 15.7805 10.9479 15.4134 11.3672 15.0938C11.4845 15.061 11.5939 15.022 11.6953 14.9766Z" fill="#FFD400"/>
<path opacity="0.989" fill-rule="evenodd" clip-rule="evenodd" d="M5.64844 23.9766C3.91406 23.9766 2.17969 23.9766 0.445312 23.9766C0.242188 23.8672 0.0859373 23.7109 -0.0234375 23.5078C-0.0234375 21.4922 -0.0234375 19.4766 -0.0234375 17.4609C0.101963 17.2029 0.305088 17.0389 0.585938 16.9688C2.22649 16.9453 3.86711 16.9375 5.50781 16.9453C5.49998 19.1485 5.50781 21.3516 5.53125 23.5547C5.54981 23.7027 5.58886 23.8433 5.64844 23.9766Z" fill="#FFD400"/>
<path opacity="0.989" fill-rule="evenodd" clip-rule="evenodd" d="M23.9766 19.4297C23.9766 20.7891 23.9766 22.1484 23.9766 23.5078C23.8672 23.7109 23.7109 23.8672 23.5078 23.9766C21.7734 23.9766 20.0391 23.9766 18.3047 23.9766C18.3643 23.8433 18.4033 23.7027 18.4219 23.5547C18.4453 22.0235 18.4531 20.4923 18.4453 18.9609C20.1172 18.9531 21.7891 18.9609 23.4609 18.9844C23.6945 19.0687 23.8664 19.2171 23.9766 19.4297Z" fill="#FFD400"/>
</g>
<defs>
<clipPath id="clip0_2002_912">
<rect width="24" height="24" fill="white"/>
</clipPath>
</defs>
</svg>
