<svg width="24" height="24" viewBox="0 0 24 24" fill="none" xmlns="http://www.w3.org/2000/svg">
<path opacity="0.976" fill-rule="evenodd" clip-rule="evenodd" d="M11.8828 1.47679C11.9472 1.46945 12.0097 1.47726 12.0703 1.50023C13.1953 2.06273 14.3203 2.62523 15.4453 3.18773C12.2578 4.90649 9.07031 6.62521 5.88281 8.34398C5.75166 8.4337 5.61103 8.48057 5.46094 8.4846C4.21927 7.87157 2.98489 7.24659 1.75781 6.6096C5.12836 4.88526 8.50336 3.17434 11.8828 1.47679Z" fill="#FFD400"/>
<path opacity="0.976" fill-rule="evenodd" clip-rule="evenodd" d="M18.3047 4.71094C19.6237 5.29228 20.9206 5.92509 22.1953 6.60938C18.7946 8.33316 15.3884 10.0441 11.9766 11.7422C10.8001 11.193 9.64388 10.6071 8.50781 9.98438C11.7763 8.2252 15.042 6.46739 18.3047 4.71094Z" fill="#FFD400"/>
<path opacity="0.993" fill-rule="evenodd" clip-rule="evenodd" d="M1.47656 7.05469C2.72115 7.67306 3.96333 8.29809 5.20313 8.92969C5.22656 10.2108 5.23439 11.4921 5.22656 12.7734C5.74242 12.7656 6.25805 12.7734 6.77344 12.7969C7.25002 13.2735 7.72655 13.75 8.20313 14.2266C8.21095 12.9763 8.23439 11.7263 8.27344 10.4766C9.39844 11.0391 10.5234 11.6016 11.6484 12.1641C11.7109 15.6015 11.7109 19.0391 11.6484 22.4766C8.25469 20.7914 4.87191 19.0883 1.5 17.3672C1.47656 13.9297 1.46875 10.4922 1.47656 7.05469Z" fill="#FFD400"/>
<path opacity="0.994" fill-rule="evenodd" clip-rule="evenodd" d="M22.4297 7.05469C22.4843 10.4843 22.4921 13.9218 22.4531 17.3672C19.0812 19.0883 15.6984 20.7914 12.3047 22.4766C12.2422 19.0391 12.2422 15.6015 12.3047 12.1641C15.6825 10.4595 19.0575 8.75639 22.4297 7.05469Z" fill="#FFD400"/>
</svg>
