<svg width="24" height="24" viewBox="0 0 24 24" fill="none" xmlns="http://www.w3.org/2000/svg">
<path opacity="0.993" fill-rule="evenodd" clip-rule="evenodd" d="M13.2422 0.539061C14.6485 0.531252 16.0548 0.539061 17.4609 0.562499C17.5937 0.632811 17.6953 0.734375 17.7656 0.867186C17.7969 1.39843 17.7969 1.92969 17.7656 2.46094C17.6953 2.59375 17.5937 2.69531 17.4609 2.76562C16.0547 2.79688 14.6484 2.79688 13.2422 2.76562C13.1094 2.69531 13.0078 2.59375 12.9375 2.46094C12.9062 1.92969 12.9062 1.39843 12.9375 0.867186C13.0169 0.733236 13.1185 0.623858 13.2422 0.539061Z" fill="white"/>
<path opacity="0.966" fill-rule="evenodd" clip-rule="evenodd" d="M14.2266 3.35156C14.9766 3.35156 15.7266 3.35156 16.4766 3.35156C16.4766 3.67969 16.4766 4.00781 16.4766 4.33594C18.0544 4.56268 19.4607 5.17205 20.6953 6.16406C20.9539 5.91323 21.2196 5.67103 21.4922 5.4375C21.9564 5.31853 22.2376 5.4982 22.3359 5.97656C22.3053 6.05227 22.2818 6.13041 22.2656 6.21094C22.0477 6.46795 21.8211 6.71794 21.5859 6.96094C23.8593 9.66309 24.3827 12.6787 23.1562 16.0078C22.2012 18.1973 20.6152 19.7363 18.3984 20.625C15.1581 21.7268 12.2362 21.18 9.63281 18.9844C7.11965 16.4711 6.34621 13.4946 7.31249 10.0547C7.71164 8.8995 8.31323 7.86825 9.11718 6.96094C8.88196 6.71794 8.65542 6.46795 8.43749 6.21094C8.31853 5.74673 8.4982 5.46548 8.97656 5.36719C9.05226 5.39784 9.1304 5.42128 9.21093 5.4375C9.48356 5.67103 9.7492 5.91323 10.0078 6.16406C11.2423 5.17219 12.6485 4.5628 14.2266 4.33594C14.2266 4.00781 14.2266 3.67969 14.2266 3.35156ZM15.2109 5.78906C18.2708 5.90784 20.4505 7.34536 21.75 10.1016C22.7155 12.7733 22.2936 15.1952 20.4844 17.3672C18.2705 19.5788 15.6846 20.1647 12.7266 19.125C10.0052 17.8636 8.58337 15.7308 8.46093 12.7266C8.55768 9.91458 9.83892 7.8443 12.3047 6.51562C13.2314 6.08081 14.2002 5.83861 15.2109 5.78906Z" fill="white"/>
<path opacity="0.992" fill-rule="evenodd" clip-rule="evenodd" d="M14.6016 6.35156C14.8516 6.35156 15.1016 6.35156 15.3516 6.35156C15.3516 8.47655 15.3516 10.6016 15.3516 12.7266C17.4766 12.7266 19.6016 12.7266 21.7266 12.7266C21.6198 15.5115 20.3073 17.488 17.7891 18.6562C15.2552 19.557 12.974 19.1351 10.9453 17.3906C8.95581 15.3065 8.46362 12.9081 9.46876 10.1953C10.4937 7.99913 12.2047 6.71789 14.6016 6.35156Z" fill="white"/>
<path opacity="0.986" fill-rule="evenodd" clip-rule="evenodd" d="M2.3672 8.78907C3.77354 8.78124 5.17979 8.78907 6.58595 8.81251C6.89392 8.98383 6.99549 9.24165 6.89063 9.58594C6.82032 9.71874 6.71874 9.82032 6.58595 9.89063C5.1797 9.9219 3.77345 9.9219 2.3672 9.89063C2.03675 9.6803 1.95082 9.39123 2.10938 9.02344C2.19046 8.93429 2.2764 8.85615 2.3672 8.78907Z" fill="white"/>
<path opacity="0.988" fill-rule="evenodd" clip-rule="evenodd" d="M0.492196 11.0391C2.27352 11.0312 4.05477 11.0391 5.83595 11.0625C6.14392 11.2338 6.24549 11.4916 6.14063 11.8359C6.07032 11.9687 5.96874 12.0703 5.83595 12.1406C4.0547 12.1719 2.27345 12.1719 0.492196 12.1406C0.161753 11.9303 0.0758155 11.6412 0.234384 11.2734C0.315463 11.1843 0.401401 11.1061 0.492196 11.0391Z" fill="white"/>
<path opacity="0.986" fill-rule="evenodd" clip-rule="evenodd" d="M1.6172 13.2891C3.02354 13.2812 4.42979 13.2891 5.83595 13.3125C6.14392 13.4838 6.24549 13.7416 6.14063 14.0859C6.07032 14.2187 5.96874 14.3203 5.83595 14.3906C4.4297 14.4219 3.02345 14.4219 1.6172 14.3906C1.28675 14.1803 1.20082 13.8912 1.35938 13.5234C1.44046 13.4343 1.5264 13.3561 1.6172 13.2891Z" fill="white"/>
<path opacity="0.981" fill-rule="evenodd" clip-rule="evenodd" d="M3.1172 15.5391C4.14856 15.5312 5.17984 15.5391 6.21095 15.5625C6.51892 15.7338 6.62049 15.9916 6.51563 16.3359C6.44532 16.4687 6.34374 16.5703 6.21095 16.6406C5.1797 16.6719 4.14845 16.6719 3.1172 16.6406C2.78675 16.4303 2.70082 16.1412 2.85938 15.7734C2.94046 15.6843 3.0264 15.6061 3.1172 15.5391Z" fill="white"/>
</svg>
