<svg width="24" height="24" viewBox="0 0 24 24" fill="none" xmlns="http://www.w3.org/2000/svg">
<g clip-path="url(#clip0_2002_952)">
<path opacity="0.987" fill-rule="evenodd" clip-rule="evenodd" d="M11.0391 0.726793C14.6098 0.500813 17.4301 1.82894 19.5 4.71117C21.0262 7.13878 21.3856 9.73256 20.5782 12.4924C19.5703 15.3752 17.625 17.3205 14.7422 18.3284C11.6125 19.218 8.76879 18.6711 6.21097 16.6877C3.83199 14.5998 2.76167 11.967 3.00003 8.78929C3.47925 5.32706 5.29958 2.86612 8.46097 1.40648C9.2974 1.06854 10.1568 0.841979 11.0391 0.726793ZM11.9297 3.91429C12.1826 3.94307 12.3935 4.05244 12.5625 4.24242C12.9929 5.10323 13.4226 5.96264 13.8516 6.82054C14.8029 6.97542 15.756 7.12387 16.711 7.26586C17.1207 7.46803 17.2692 7.78832 17.1563 8.22679C16.4727 8.95734 15.7696 9.67607 15.0469 10.383C15.1594 11.3549 15.3078 12.3237 15.4922 13.2893C15.4005 13.8659 15.0724 14.0925 14.5078 13.969C13.6567 13.5356 12.8129 13.0903 11.9766 12.633C11.1582 13.0533 10.3457 13.483 9.53909 13.9221C8.96211 14.0869 8.61837 13.8759 8.50784 13.2893C8.67809 12.3215 8.82654 11.3527 8.95315 10.383C8.20189 9.69426 7.48315 8.97553 6.7969 8.22679C6.68403 7.78832 6.83248 7.46803 7.24222 7.26586C8.19401 7.11651 9.14712 6.97589 10.1016 6.84398C10.5245 5.97464 10.9542 5.10745 11.3907 4.24242C11.5418 4.07739 11.7215 3.96801 11.9297 3.91429Z" fill="#FFD400"/>
<path opacity="0.962" fill-rule="evenodd" clip-rule="evenodd" d="M11.9297 6.30452C11.9708 6.29838 12.002 6.31399 12.0234 6.3514C12.2812 6.86702 12.5391 7.38265 12.7969 7.89827C12.8672 7.96859 12.9375 8.0389 13.0078 8.10921C13.6285 8.25148 14.2535 8.37649 14.8828 8.48421C14.4031 8.93252 13.9578 9.4091 13.5469 9.9139C13.5139 9.99724 13.4904 10.0832 13.4766 10.1717C13.5893 10.7605 13.6674 11.3464 13.7109 11.9295C13.2036 11.6837 12.7036 11.4259 12.2109 11.1561C12.1146 11.1415 12.0208 11.1181 11.9297 11.0858C11.3334 11.3292 10.7552 11.6105 10.1953 11.9295C10.1797 11.8905 10.164 11.8514 10.1484 11.8123C10.2482 11.2665 10.342 10.7196 10.4297 10.1717C10.4235 10.0661 10.4001 9.96457 10.3594 9.86702C9.93113 9.39185 9.48581 8.93093 9.02344 8.48421C9.58425 8.38174 10.1467 8.28799 10.7109 8.20296C10.8969 8.15777 11.0454 8.05619 11.1562 7.89827C11.4274 7.37173 11.6852 6.84049 11.9297 6.30452Z" fill="#FFD400"/>
<path opacity="0.978" fill-rule="evenodd" clip-rule="evenodd" d="M3.11719 15.3986C3.16388 15.3945 3.20294 15.4102 3.23438 15.4454C4.19332 16.9357 5.45115 18.0998 7.00782 18.9376C7.5279 19.1822 8.04352 19.4244 8.5547 19.6642C7.91251 20.7519 7.27969 21.8456 6.65626 22.9454C6.40693 23.2111 6.10224 23.2971 5.74219 23.2033C5.59866 23.1535 5.48148 23.0676 5.39063 22.9454C4.94532 22.1798 4.50001 21.4142 4.05469 20.6486C3.10196 20.6095 2.14883 20.5861 1.19532 20.5783C0.770923 20.3624 0.622484 20.0265 0.750007 19.5704C1.55106 18.1843 2.34012 16.7936 3.11719 15.3986Z" fill="#FFD400"/>
<path opacity="0.978" fill-rule="evenodd" clip-rule="evenodd" d="M20.7422 15.3984C20.8328 15.452 20.9031 15.5301 20.9531 15.6328C21.6562 16.8516 22.3594 18.0703 23.0625 19.2891C23.2967 19.6283 23.3123 19.9721 23.1094 20.3203C23.0185 20.4425 22.9013 20.5284 22.7578 20.5781C21.8043 20.586 20.8512 20.6094 19.8984 20.6484C19.4531 21.414 19.0078 22.1797 18.5625 22.9453C18.3132 23.211 18.0085 23.2969 17.6484 23.2031C17.5049 23.1534 17.3877 23.0675 17.2969 22.9453C16.6734 21.8455 16.0406 20.7517 15.3984 19.6641C17.3095 18.9388 18.911 17.7825 20.2031 16.1953C20.4065 15.9445 20.5862 15.6789 20.7422 15.3984Z" fill="#FFD400"/>
</g>
<defs>
<clipPath id="clip0_2002_952">
<rect width="24" height="24" fill="white"/>
</clipPath>
</defs>
</svg>
