<svg width="24" height="24" viewBox="0 0 24 24" fill="none" xmlns="http://www.w3.org/2000/svg">
<rect width="24" height="24" rx="12" fill="#FFD400"/>
<path d="M10.9275 13.779L10.746 6.17575H13.287L13.089 13.779H10.9275ZM12 17.8242C11.769 17.8242 11.5435 17.7701 11.3235 17.6618C11.1035 17.5535 10.922 17.3964 10.779 17.1906C10.636 16.9849 10.5645 16.7303 10.5645 16.4271C10.5645 16.113 10.6305 15.853 10.7625 15.6473C10.9055 15.4415 11.087 15.2898 11.307 15.1924C11.527 15.0841 11.7635 15.0299 12.0165 15.0299C12.3795 15.0299 12.704 15.149 12.99 15.3873C13.287 15.6256 13.4355 15.9722 13.4355 16.4271C13.4355 16.7303 13.364 16.9849 13.221 17.1906C13.089 17.3964 12.913 17.5535 12.693 17.6618C12.473 17.7701 12.242 17.8242 12 17.8242Z" fill="#4D4D4D"/>
</svg>
