<svg width="28" height="28" viewBox="0 0 28 28" fill="none" xmlns="http://www.w3.org/2000/svg">
<path opacity="0.976" fill-rule="evenodd" clip-rule="evenodd" d="M13.8633 1.72266C13.9384 1.71409 14.0113 1.7232 14.082 1.75C15.3945 2.40625 16.707 3.0625 18.0195 3.71875C14.3008 5.72398 10.582 7.72915 6.86328 9.73438C6.71027 9.83905 6.5462 9.89374 6.37109 9.89844C4.92248 9.18324 3.48237 8.45409 2.05078 7.71094C5.98309 5.6992 9.92059 3.70313 13.8633 1.72266Z" fill="#FFD400"/>
<path opacity="0.976" fill-rule="evenodd" clip-rule="evenodd" d="M21.3555 5.49609C22.8943 6.17433 24.4074 6.91261 25.8945 7.71094C21.9271 9.72202 17.9531 11.7181 13.9727 13.6992C12.6001 13.0586 11.2512 12.375 9.92578 11.6484C13.739 9.59607 17.5489 7.54529 21.3555 5.49609Z" fill="#FFD400"/>
<path opacity="0.993" fill-rule="evenodd" clip-rule="evenodd" d="M1.72266 8.23047C3.17467 8.95191 4.62389 9.68111 6.07031 10.418C6.09766 11.9126 6.10679 13.4075 6.09766 14.9023C6.69949 14.8932 7.30106 14.9023 7.90234 14.9297C8.45835 15.4857 9.01431 16.0416 9.57031 16.5977C9.57945 15.139 9.60679 13.6806 9.65234 12.2227C10.9648 12.8789 12.2773 13.5352 13.5898 14.1914C13.6627 18.2018 13.6627 22.2123 13.5898 26.2227C9.63047 24.2566 5.68389 22.2697 1.75 20.2617C1.72266 16.2513 1.71354 12.2409 1.72266 8.23047Z" fill="#FFD400"/>
<path opacity="0.994" fill-rule="evenodd" clip-rule="evenodd" d="M26.168 8.23047C26.2317 12.2317 26.2408 16.2421 26.1953 20.2617C22.2614 22.2697 18.3148 24.2566 14.3555 26.2227C14.2826 22.2123 14.2826 18.2018 14.3555 14.1914C18.2963 12.2028 22.2338 10.2158 26.168 8.23047Z" fill="#FFD400"/>
</svg>
