<svg width="24" height="24" viewBox="0 0 24 24" fill="none" xmlns="http://www.w3.org/2000/svg">
<g clip-path="url(#clip0_78_2488)">
<path opacity="0.992" fill-rule="evenodd" clip-rule="evenodd" d="M23.9766 6.53906C23.9766 7.83595 23.9766 9.1328 23.9766 10.4297C23.7351 11.2102 23.2195 11.718 22.4297 11.9531C19.6016 11.9766 16.7735 11.9844 13.9453 11.9766C13.9531 11.7572 13.9453 11.5385 13.9219 11.3203C13.8693 11.2208 13.799 11.1348 13.7109 11.0625C13.136 11.0092 12.5578 10.9858 11.9766 10.9922C11.3953 10.9858 10.8172 11.0092 10.2422 11.0625C10.1542 11.1348 10.0838 11.2208 10.0312 11.3203C10.0079 11.5385 10 11.7572 10.0078 11.9766C7.17966 11.9844 4.35152 11.9766 1.52344 11.9531C0.733641 11.718 0.218016 11.2102 -0.0234375 10.4297C-0.0234375 9.1328 -0.0234375 7.83595 -0.0234375 6.53906C0.182096 5.74753 0.682097 5.23974 1.47656 5.01563C3.30282 4.94672 5.13094 4.92328 6.96094 4.94531C6.95316 4.50753 6.96094 4.07004 6.98438 3.63281C7.20595 2.69247 7.79189 2.13778 8.74219 1.96875C10.8984 1.9375 13.0547 1.9375 15.2109 1.96875C16.1612 2.13778 16.7472 2.69247 16.9688 3.63281C16.9922 4.07004 17 4.50753 16.9922 4.94531C18.8222 4.92328 20.6503 4.94672 22.4766 5.01563C23.271 5.23974 23.771 5.74753 23.9766 6.53906ZM8.97656 4.00781C10.9766 4.00781 12.9765 4.00781 14.9766 4.00781C14.9766 4.32032 14.9766 4.63281 14.9766 4.94531C12.9765 4.94531 10.9766 4.94531 8.97656 4.94531C8.97656 4.63281 8.97656 4.32032 8.97656 4.00781Z" fill="#FFD400"/>
<path opacity="0.994" fill-rule="evenodd" clip-rule="evenodd" d="M23.9766 12.7265C23.9766 15.2891 23.9766 17.8515 23.9766 20.414C23.7364 21.3023 23.1583 21.8257 22.2422 21.9844C15.3984 22.0156 8.55469 22.0156 1.71094 21.9844C0.795234 21.8261 0.217109 21.3027 -0.0234375 20.414C-0.0234375 17.8515 -0.0234375 15.2891 -0.0234375 12.7265C0.14828 12.4849 0.382655 12.399 0.679688 12.4687C0.999516 12.7145 1.35889 12.8708 1.75781 12.9375C4.50777 12.9609 7.25775 12.9687 10.0078 12.9609C9.9862 13.5593 10.0096 14.1531 10.0781 14.7422C10.181 14.8678 10.3138 14.9381 10.4766 14.9531C11.4765 14.9844 12.4766 14.9844 13.4766 14.9531C13.6394 14.9381 13.7722 14.8678 13.875 14.7422C13.9435 14.1531 13.9669 13.5593 13.9453 12.9609C16.6954 12.9687 19.4453 12.9609 22.1953 12.9375C22.5942 12.8708 22.9536 12.7145 23.2734 12.4687C23.5705 12.399 23.8049 12.4849 23.9766 12.7265Z" fill="#FFD400"/>
</g>
<defs>
<clipPath id="clip0_78_2488">
<rect width="24" height="24" fill="white"/>
</clipPath>
</defs>
</svg>
