<svg width="28" height="28" viewBox="0 0 28 28" fill="none" xmlns="http://www.w3.org/2000/svg">
<path opacity="0.983" fill-rule="evenodd" clip-rule="evenodd" d="M15.0117 1.72266C15.4088 1.66743 15.7734 1.74947 16.1054 1.96875C18.4847 3.29514 20.8727 4.60764 23.2695 5.90625C23.8234 6.3449 23.9419 6.88264 23.625 7.51953C23.5429 7.67446 23.4244 7.79297 23.2695 7.875C20.5962 9.03848 17.9165 10.1869 15.2304 11.3203C14.7026 11.4255 14.3289 11.2341 14.1093 10.7461C14.082 10.1083 14.0729 9.47029 14.082 8.83203C10.6091 8.74081 7.56478 9.82543 4.94919 12.0859C4.70075 12.3252 4.46377 12.5713 4.23825 12.8242C4.04648 11.7691 4.16497 10.7483 4.59372 9.76172C5.6651 7.48727 7.35128 5.83751 9.65232 4.8125C11.1734 4.17468 12.7594 3.85567 14.4101 3.85547C14.3887 3.3232 14.4161 2.79455 14.4922 2.26953C14.6027 2.02235 14.7759 1.84006 15.0117 1.72266Z" fill="#FFD400"/>
<path opacity="0.951" fill-rule="evenodd" clip-rule="evenodd" d="M7.73828 11.0195C7.78619 11.0124 7.82266 11.0306 7.84766 11.0742C7.49968 11.9922 7.2718 12.9401 7.16406 13.918C7.0589 14.8261 7.00421 15.7376 7 16.6523C6.8647 16.8612 6.6733 16.9432 6.42578 16.8984C5.49948 16.0893 4.84321 15.0958 4.45703 13.918C5.38245 12.7552 6.4762 11.7891 7.73828 11.0195Z" fill="#FFD400"/>
<path opacity="0.951" fill-rule="evenodd" clip-rule="evenodd" d="M21.2461 11.0195C21.3822 11.0085 21.5099 11.0358 21.6289 11.1016C22.5024 11.9121 23.1222 12.8874 23.4883 14.0273C22.5625 15.2084 21.4505 16.1745 20.1523 16.9258C20.703 15.1032 20.9674 13.2256 20.9453 11.293C21.0059 11.1501 21.1061 11.0589 21.2461 11.0195Z" fill="#FFD400"/>
<path opacity="0.983" fill-rule="evenodd" clip-rule="evenodd" d="M23.6523 15.1211C23.7231 15.2057 23.7596 15.3151 23.7617 15.4492C23.8555 16.3934 23.7188 17.3049 23.3516 18.1836C22.1843 20.6633 20.3157 22.3859 17.7461 23.3516C16.386 23.8456 14.9823 24.0917 13.5352 24.0898C13.5442 24.5459 13.5352 25.0016 13.5078 25.457C13.3434 26.1002 12.9333 26.3462 12.2773 26.1953C9.75225 24.796 7.21842 23.4106 4.67578 22.0391C4.12184 21.6004 4.00336 21.0627 4.32031 20.4258C4.40234 20.2709 4.52083 20.1523 4.67578 20.0703C7.34912 18.9068 10.0288 17.7584 12.7148 16.625C13.2427 16.5198 13.6164 16.7112 13.8359 17.1992C13.8633 17.837 13.8724 18.475 13.8633 19.1133C17.3365 19.2044 20.3808 18.1198 22.9961 15.8594C23.2465 15.6366 23.4653 15.3905 23.6523 15.1211Z" fill="#FFD400"/>
</svg>
