<svg width="12" height="10" viewBox="0 0 12 10" fill="none" xmlns="http://www.w3.org/2000/svg">
<path opacity="0.962" fill-rule="evenodd" clip-rule="evenodd" d="M10.746 0.722709C11.5498 0.686537 11.8948 1.06411 11.7811 1.85552C11.739 1.95302 11.6868 2.04419 11.6249 2.12896C9.31368 4.44017 7.0025 6.75134 4.69129 9.06255C4.32672 9.29693 3.96211 9.29693 3.59754 9.06255C2.51032 7.97533 1.42305 6.88806 0.335825 5.80083C0.0298486 5.36427 0.0624268 4.95411 0.433481 4.57036C0.798052 4.33599 1.16266 4.33599 1.52723 4.57036C2.39364 5.44329 3.26606 6.30919 4.14442 7.16802C6.24676 5.08521 8.34309 2.99536 10.4335 0.89849C10.535 0.828373 10.6392 0.769779 10.746 0.722709Z" fill="#212121"/>
</svg>
