<svg width="28" height="28" viewBox="0 0 28 28" fill="none" xmlns="http://www.w3.org/2000/svg">
<rect width="28" height="28" rx="14" fill="#FF0000"/>
<path fill-rule="evenodd" clip-rule="evenodd" d="M8.53189 8.15029C8.90613 7.78518 9.50549 7.79258 9.87061 8.16682L13.9957 12.395L18.1208 8.16682C18.4859 7.79258 19.0853 7.78518 19.4595 8.15029C19.8338 8.51541 19.8412 9.11477 19.4761 9.48901L15.3183 13.7507L19.7223 18.2649C20.0875 18.6391 20.0801 19.2385 19.7058 19.6036C19.3316 19.9687 18.7322 19.9613 18.3671 19.587L13.9957 15.1064L9.62431 19.587C9.2592 19.9613 8.65984 19.9687 8.28559 19.6036C7.91135 19.2385 7.90395 18.6391 8.26907 18.2649L12.6731 13.7507L8.51536 9.48901C8.15025 9.11477 8.15765 8.51541 8.53189 8.15029Z" fill="white"/>
</svg>
