<svg width="16" height="20" viewBox="0 0 16 20" fill="none" xmlns="http://www.w3.org/2000/svg">
<path opacity="0.997" fill-rule="evenodd" clip-rule="evenodd" d="M1.73047 -0.0195312C4.39973 -0.0195312 7.06902 -0.0195312 9.73828 -0.0195312C9.73176 1.34772 9.73828 2.71491 9.75781 4.08203C9.81879 4.97629 10.281 5.5427 11.1445 5.78125C12.6279 5.83762 14.1123 5.85715 15.5977 5.83984C15.6042 10.0977 15.5977 14.3555 15.5781 18.6133C15.3822 19.3235 14.933 19.7792 14.2305 19.9805C10.0638 19.9805 5.89715 19.9805 1.73047 19.9805C1.02761 19.7789 0.578396 19.3232 0.382813 18.6133C0.356771 12.8581 0.356771 7.10285 0.382813 1.34766C0.578739 0.637434 1.02796 0.181705 1.73047 -0.0195312ZM4.46484 8.22266C6.80863 8.21613 9.15238 8.22266 11.4961 8.24219C11.8454 8.27238 12.0277 8.46121 12.043 8.80859C12.0277 9.15598 11.8454 9.3448 11.4961 9.375C9.15234 9.40105 6.80859 9.40105 4.46484 9.375C3.94586 9.25496 3.79613 8.94898 4.01563 8.45703C4.14484 8.33066 4.29457 8.25254 4.46484 8.22266ZM4.46484 10.5664C6.80863 10.5599 9.15238 10.5664 11.4961 10.5859C11.8454 10.6161 12.0277 10.805 12.043 11.1523C12.0277 11.4997 11.8454 11.6886 11.4961 11.7188C9.15234 11.7448 6.80859 11.7448 4.46484 11.7188C3.94586 11.5987 3.79613 11.2927 4.01563 10.8008C4.14484 10.6744 4.29457 10.5963 4.46484 10.5664ZM4.46484 12.9102C6.80863 12.9036 9.15238 12.9102 11.4961 12.9297C11.8454 12.9599 12.0277 13.1487 12.043 13.4961C12.0277 13.8435 11.8454 14.0323 11.4961 14.0625C9.15234 14.0886 6.80859 14.0886 4.46484 14.0625C3.94586 13.9425 3.79613 13.6365 4.01563 13.1445C4.14484 13.0182 4.29457 12.94 4.46484 12.9102ZM4.46484 15.2539C6.02738 15.2474 7.58988 15.2539 9.15234 15.2734C9.40774 15.287 9.58352 15.4107 9.67969 15.6445C9.74961 16.0716 9.57383 16.3255 9.15234 16.4062C7.58984 16.4323 6.02734 16.4323 4.46484 16.4062C3.94586 16.2862 3.79613 15.9802 4.01563 15.4883C4.14484 15.3619 4.29457 15.2838 4.46484 15.2539Z" fill="#FFD400"/>
</svg>
