<svg width="17" height="16" viewBox="0 0 17 16" fill="none" xmlns="http://www.w3.org/2000/svg">
<path opacity="0.981" fill-rule="evenodd" clip-rule="evenodd" d="M14.5759 0.677241C15.63 0.646496 16.3862 1.10142 16.8448 2.04201C17.2042 3.15897 16.9141 4.06314 15.9748 4.75449C15.0733 5.23322 14.209 5.17635 13.3817 4.5839C12.7086 3.95194 12.4755 3.18426 12.6823 2.28085C12.9964 1.36956 13.6276 0.835029 14.5759 0.677241Z" fill="#212121"/>
<path opacity="0.987" fill-rule="evenodd" clip-rule="evenodd" d="M1.50869 2.14441C4.54534 2.13872 7.58195 2.14441 10.6185 2.16147C11.0722 2.3121 11.2485 2.62486 11.1474 3.09975C11.0734 3.35564 10.9086 3.52054 10.6527 3.59448C7.59328 3.61723 4.53394 3.61723 1.47457 3.59448C1.07517 3.42722 0.91026 3.12585 0.97984 2.69031C1.07145 2.42247 1.24773 2.2405 1.50869 2.14441Z" fill="#212121"/>
<path opacity="0.98" fill-rule="evenodd" clip-rule="evenodd" d="M5.67048 5.79517C6.7954 5.68349 7.60856 6.12704 8.11001 7.12582C8.47567 8.23486 8.19705 9.13903 7.27409 9.8383C6.18353 10.403 5.21113 10.2495 4.35689 9.37769C4.20905 9.18413 4.08963 8.97372 3.99864 8.74648C3.19115 8.73512 2.38366 8.72373 1.57617 8.71236C1.01151 8.53259 0.835222 8.16298 1.04732 7.60349C1.16764 7.40382 1.34392 7.2844 1.57617 7.24524C2.38366 7.23387 3.19115 7.22248 3.99864 7.21112C4.31567 6.45056 4.87294 5.97859 5.67048 5.79517Z" fill="#212121"/>
<path opacity="0.965" fill-rule="evenodd" clip-rule="evenodd" d="M10.3109 7.22815C12.3354 7.22245 14.3598 7.22815 16.3842 7.24521C16.9488 7.42498 17.1251 7.7946 16.913 8.35409C16.7927 8.55375 16.6164 8.67317 16.3842 8.71234C14.3598 8.7351 12.3353 8.7351 10.3109 8.71234C9.83592 8.57801 9.6369 8.26524 9.71384 7.77406C9.81146 7.47729 10.0105 7.2953 10.3109 7.22815Z" fill="#212121"/>
<path opacity="0.983" fill-rule="evenodd" clip-rule="evenodd" d="M11.5736 10.8789C12.7057 10.8069 13.5018 11.2846 13.962 12.3119C14.8396 12.3299 15.7153 12.3583 16.5892 12.3972C16.9573 12.6257 17.0768 12.9498 16.9474 13.3696C16.8455 13.5852 16.6806 13.7274 16.4527 13.7961C15.6225 13.8075 14.7922 13.8189 13.962 13.8302C13.4688 14.9185 12.6272 15.3848 11.4371 15.2291C10.5274 15.0017 9.95873 14.4331 9.73119 13.5231C9.56919 12.4484 9.95586 11.6409 10.8912 11.1007C11.1171 11.0083 11.3445 10.9344 11.5736 10.8789Z" fill="#212121"/>
<path opacity="0.985" fill-rule="evenodd" clip-rule="evenodd" d="M1.47414 12.346C3.56682 12.3403 5.65949 12.346 7.75209 12.3631C8.15149 12.5303 8.31639 12.8317 8.24682 13.2672C8.16152 13.5345 7.98523 13.7108 7.71797 13.7961C5.64806 13.8188 3.57817 13.8188 1.50826 13.7961C1.03846 13.6128 0.873552 13.2773 1.01353 12.7896C1.10669 12.5759 1.26022 12.428 1.47414 12.346Z" fill="#212121"/>
</svg>
