<svg width="24" height="24" viewBox="0 0 24 24" fill="none" xmlns="http://www.w3.org/2000/svg">
<path opacity="0.979" fill-rule="evenodd" clip-rule="evenodd" d="M11.8359 1.94535C12.0061 1.92943 12.1624 1.96849 12.3047 2.06254C15.1328 3.82817 17.961 5.59377 20.7891 7.35941C20.8438 7.41412 20.8984 7.46877 20.9531 7.52348C20.9844 8.17973 20.9844 8.83598 20.9531 9.49223C20.8764 9.60051 20.7748 9.67082 20.6484 9.70316C14.8672 9.73443 9.08592 9.73443 3.30469 9.70316C3.09375 9.67973 2.97656 9.56254 2.95313 9.3516C2.92187 8.7891 2.92187 8.2266 2.95313 7.6641C2.97002 7.57405 3.00908 7.49591 3.07031 7.42973C5.9873 5.58871 8.9092 3.76058 11.8359 1.94535ZM11.7891 4.89848C12.755 4.90387 13.3566 5.37262 13.5938 6.30473C13.5943 7.56984 12.9615 8.18699 11.6953 8.15629C10.7609 7.89351 10.3156 7.27635 10.3594 6.30473C10.5361 5.52637 11.0127 5.05762 11.7891 4.89848Z" fill="#FFD400"/>
<path opacity="0.965" fill-rule="evenodd" clip-rule="evenodd" d="M4.75781 10.4766C5.77345 10.4766 6.78905 10.4766 7.80469 10.4766C7.80469 12.5235 7.80469 14.5703 7.80469 16.6172C6.78905 16.6172 5.77345 16.6172 4.75781 16.6172C4.75781 14.5703 4.75781 12.5235 4.75781 10.4766Z" fill="#FFD400"/>
<path opacity="0.98" fill-rule="evenodd" clip-rule="evenodd" d="M10.4766 10.4766C11.4765 10.4766 12.4766 10.4766 13.4766 10.4766C13.4766 12.5235 13.4766 14.5703 13.4766 16.6172C12.4766 16.6172 11.4765 16.6172 10.4766 16.6172C10.4766 14.5703 10.4766 12.5235 10.4766 10.4766Z" fill="#FFD400"/>
<path opacity="0.965" fill-rule="evenodd" clip-rule="evenodd" d="M16.1484 10.4764C17.1598 10.4611 18.1676 10.4767 19.1719 10.5233C19.2031 12.5389 19.2031 14.5545 19.1719 16.5701C18.1676 16.6167 17.1598 16.6324 16.1484 16.617C16.1484 14.5701 16.1484 12.5233 16.1484 10.4764Z" fill="#FFD400"/>
<path opacity="0.985" fill-rule="evenodd" clip-rule="evenodd" d="M3.58595 17.3672C9.17973 17.3594 14.7735 17.3672 20.3672 17.3906C20.4844 17.4453 20.5703 17.5313 20.625 17.6484C20.6485 18.1794 20.6563 18.7107 20.6485 19.2422C20.9926 19.2344 21.3363 19.2422 21.6797 19.2656C21.7898 19.2819 21.8757 19.3366 21.9375 19.4297C22.0135 20.1766 22.0291 20.9266 21.9844 21.6797C21.9453 21.8438 21.8438 21.9453 21.6797 21.9844C15.211 22.0156 8.7422 22.0156 2.27345 21.9844C2.10939 21.9453 2.00782 21.8438 1.96876 21.6797C1.92405 20.9266 1.93967 20.1766 2.01564 19.4297C2.07746 19.3366 2.1634 19.2819 2.27345 19.2656C2.61685 19.2422 2.9606 19.2344 3.3047 19.2422C3.2969 18.7107 3.30471 18.1794 3.32814 17.6484C3.39187 17.5302 3.47781 17.4364 3.58595 17.3672Z" fill="#FFD400"/>
</svg>
