<svg width="24" height="24" viewBox="0 0 24 24" fill="none" xmlns="http://www.w3.org/2000/svg">
<g clip-path="url(#clip0_78_2474)">
<path opacity="0.991" fill-rule="evenodd" clip-rule="evenodd" d="M23.9766 12.1172C23.9766 15.5235 23.9766 18.9297 23.9766 22.3359C23.8873 22.5109 23.7466 22.6281 23.5547 22.6875C15.8359 22.7188 8.1172 22.7188 0.398438 22.6875C0.206472 22.6281 0.0658472 22.5109 -0.0234375 22.3359C-0.0234375 19.8828 -0.0234375 17.4297 -0.0234375 14.9766C0.0536034 14.8632 0.147353 14.7616 0.257812 14.6719C2.24081 13.6569 4.24081 12.6803 6.25781 11.7422C6.55162 11.7519 6.74695 11.8925 6.84375 12.1641C6.85936 12.8516 6.87502 13.539 6.89062 14.2266C8.0198 13.6502 9.15263 13.08 10.2891 12.5156C10.328 10.5424 10.3514 8.56584 10.3594 6.58594C10.4096 6.39502 10.5268 6.26217 10.7109 6.1875C11.2266 6.15624 11.7422 6.15624 12.2578 6.1875C12.4246 6.27619 12.5418 6.40899 12.6094 6.58594C12.6172 9.11733 12.6406 11.6486 12.6797 14.1797C13.9297 13.5547 15.1797 12.9297 16.4297 12.3047C16.5592 8.79038 16.6608 5.27475 16.7344 1.75781C16.7726 1.5173 16.9054 1.35324 17.1328 1.26563C18.1172 1.23437 19.1016 1.23437 20.0859 1.26563C20.2629 1.33322 20.3957 1.45041 20.4844 1.61719C20.5985 5.2102 20.6922 8.80392 20.7656 12.3984C20.7737 12.5879 20.7972 12.7754 20.8359 12.9609C21.6427 12.5498 22.4552 12.1513 23.2734 11.7656C23.5843 11.7336 23.8186 11.8508 23.9766 12.1172ZM2.55469 17.9297C3.07031 17.9297 3.58594 17.9297 4.10156 17.9297C4.10156 18.6641 4.10156 19.3984 4.10156 20.1328C3.58594 20.1328 3.07031 20.1328 2.55469 20.1328C2.55469 19.3984 2.55469 18.6641 2.55469 17.9297ZM6.86719 17.9297C7.38281 17.9297 7.89844 17.9297 8.41406 17.9297C8.41406 18.6641 8.41406 19.3984 8.41406 20.1328C7.89844 20.1328 7.38281 20.1328 6.86719 20.1328C6.86719 19.3984 6.86719 18.6641 6.86719 17.9297ZM11.1797 17.9297C11.6953 17.9297 12.2109 17.9297 12.7266 17.9297C12.7266 18.6641 12.7266 19.3984 12.7266 20.1328C12.2109 20.1328 11.6953 20.1328 11.1797 20.1328C11.1797 19.3984 11.1797 18.6641 11.1797 17.9297ZM15.4922 17.9297C16.0234 17.9297 16.5547 17.9297 17.0859 17.9297C17.0859 18.6641 17.0859 19.3984 17.0859 20.1328C16.5547 20.1328 16.0234 20.1328 15.4922 20.1328C15.4922 19.3984 15.4922 18.6641 15.4922 17.9297Z" fill="#FFD400"/>
</g>
<defs>
<clipPath id="clip0_78_2474">
<rect width="24" height="24" fill="white"/>
</clipPath>
</defs>
</svg>
