<svg width="28" height="28" viewBox="0 0 28 28" fill="none" xmlns="http://www.w3.org/2000/svg">
<g clip-path="url(#clip0_74_1600)">
<path opacity="0.987" fill-rule="evenodd" clip-rule="evenodd" d="M13.6445 -0.0273438C13.8633 -0.0273438 14.082 -0.0273438 14.3008 -0.0273438C15.2602 0.795025 16.1807 1.67002 17.0625 2.59766C18.1031 2.29416 19.1513 2.01161 20.207 1.75C20.9203 1.60076 21.3486 1.88331 21.4922 2.59766C21.7571 3.60266 22.0305 4.60527 22.3125 5.60547C23.3166 5.90893 24.3283 6.1915 25.3477 6.45312C26.0792 6.61243 26.3618 7.05906 26.1953 7.79297C25.8875 8.84182 25.6323 9.89909 25.4297 10.9648C26.33 11.8193 27.1777 12.7125 27.9727 13.6445C27.9727 13.8633 27.9727 14.082 27.9727 14.3008C27.1777 15.2328 26.33 16.126 25.4297 16.9805C25.6323 18.0462 25.8875 19.1035 26.1953 20.1523C26.3357 20.8684 26.0532 21.315 25.3477 21.4922C24.3427 21.7571 23.34 22.0305 22.3398 22.3125C22.0169 23.4308 21.6979 24.5519 21.3828 25.6758C21.1382 26.167 20.7463 26.3402 20.207 26.1953C19.1513 25.9337 18.1031 25.6512 17.0625 25.3477C16.1807 26.2753 15.2602 27.1503 14.3008 27.9727C14.082 27.9727 13.8633 27.9727 13.6445 27.9727C12.7125 27.1777 11.8193 26.33 10.9648 25.4297C10.8737 25.3932 10.7826 25.3932 10.6914 25.4297C9.70703 25.6849 8.72266 25.9401 7.73828 26.1953C7.02505 26.3446 6.59668 26.062 6.45312 25.3477C6.18822 24.3427 5.91478 23.34 5.63281 22.3398C4.57161 22.0266 3.50521 21.7259 2.43359 21.4375C1.81301 21.2266 1.58514 20.7982 1.75 20.1523C2.05782 19.1035 2.31303 18.0462 2.51562 16.9805C1.61532 16.126 0.767659 15.2328 -0.0273438 14.3008C-0.0273438 14.082 -0.0273438 13.8633 -0.0273438 13.6445C0.767659 12.7125 1.61532 11.8193 2.51562 10.9648C2.31303 9.89909 2.05782 8.84182 1.75 7.79297C1.58514 7.14711 1.81301 6.71869 2.43359 6.50781C3.49088 6.21616 4.54818 5.92446 5.60547 5.63281C5.90893 4.62871 6.1915 3.61699 6.45312 2.59766C6.59668 1.88331 7.02505 1.60076 7.73828 1.75C8.72266 2.00521 9.70703 2.26041 10.6914 2.51562C10.7826 2.55209 10.8737 2.55209 10.9648 2.51562C11.8193 1.61532 12.7125 0.767659 13.6445 -0.0273438ZM9.81641 7.30078C11.3622 7.18468 12.4651 7.82272 13.125 9.21484C13.6177 10.991 13.0435 12.2944 11.4023 13.125C9.62615 13.6177 8.32278 13.0435 7.49219 11.4023C6.99196 9.30316 7.76672 7.93598 9.81641 7.30078ZM17.9648 8.83203C18.635 8.75552 19.0179 9.04723 19.1133 9.70703C19.1245 9.88723 19.0789 10.0513 18.9766 10.1992C16.0508 13.125 13.125 16.0508 10.1992 18.9766C9.59919 19.2645 9.15261 19.1095 8.85938 18.5117C8.80245 18.2416 8.83892 17.9864 8.96875 17.7461C11.945 14.7425 14.9437 11.7711 17.9648 8.83203ZM17.1445 14.6289C18.6901 14.5127 19.7929 15.1507 20.4531 16.543C20.927 18.0927 20.4987 19.3232 19.168 20.2344C17.5545 20.9954 16.1964 20.6764 15.0938 19.2773C14.2487 17.6325 14.5495 16.238 15.9961 15.0938C16.3618 14.8781 16.7446 14.7232 17.1445 14.6289Z" fill="#FFD400"/>
<path opacity="0.944" fill-rule="evenodd" clip-rule="evenodd" d="M10.0899 9.05078C11.0821 9.04947 11.5652 9.54166 11.5391 10.5273C11.3457 11.276 10.8626 11.6132 10.0899 11.5391C9.34124 11.3457 9.00398 10.8626 9.07814 10.0898C9.20655 9.53313 9.5438 9.18679 10.0899 9.05078Z" fill="#FFD400"/>
<path opacity="0.945" fill-rule="evenodd" clip-rule="evenodd" d="M17.418 16.3789C18.5355 16.4115 19.0004 16.9766 18.8125 18.0742C18.3574 18.8968 17.7103 19.0882 16.8711 18.6484C16.2148 17.974 16.2148 17.2995 16.8711 16.625C17.0524 16.5249 17.2347 16.4429 17.418 16.3789Z" fill="#FFD400"/>
</g>
<defs>
<clipPath id="clip0_74_1600">
<rect width="28" height="28" fill="white"/>
</clipPath>
</defs>
</svg>
