<svg width="12" height="13" viewBox="0 0 12 13" fill="none" xmlns="http://www.w3.org/2000/svg">
<rect y="0.5" width="12" height="12" rx="6" fill="#FFD400"/>
<g clip-path="url(#clip0_173_4015)">
<path opacity="0.994" fill-rule="evenodd" clip-rule="evenodd" d="M8.62199 4.21429C8.92149 4.23132 9.0889 4.38826 9.12422 4.68514C9.12036 4.79901 9.08479 4.90155 9.0175 4.99275C7.78075 6.2295 6.544 7.46625 5.30726 8.703C5.09973 8.84688 4.89466 8.84269 4.69202 8.69044C4.16677 8.16519 3.64152 7.63993 3.11627 7.11469C2.9378 6.85371 2.96501 6.61724 3.19788 6.40528C3.42199 6.28043 3.63126 6.30136 3.82567 6.46806C4.21072 6.85311 4.59576 7.23815 4.9808 7.6232C5.00173 7.63157 5.02265 7.63157 5.04358 7.6232C6.14431 6.52247 7.24503 5.42175 8.34576 4.32102C8.4297 4.26006 8.52177 4.22448 8.62199 4.21429Z" fill="white"/>
</g>
<defs>
<clipPath id="clip0_173_4015">
<rect width="6.42857" height="6.42857" fill="white" transform="translate(3 3.5)"/>
</clipPath>
</defs>
</svg>
