<svg width="17" height="14" viewBox="0 0 17 14" fill="none" xmlns="http://www.w3.org/2000/svg">
<path opacity="0.982" fill-rule="evenodd" clip-rule="evenodd" d="M4.86937 1.41746C5.07139 1.40677 5.25862 1.44882 5.43107 1.54361C6.58046 2.57618 7.72989 3.60876 8.87928 4.64132C9.09151 4.99623 9.02392 5.29991 8.67644 5.55241C8.4219 5.65173 8.17226 5.64237 7.92751 5.52438C7.18379 4.85625 6.44004 4.1881 5.69631 3.51998C5.68592 6.66907 5.6755 9.8182 5.66511 12.9673C5.55923 13.2558 5.33561 13.4053 4.99419 13.4158C4.68372 13.3955 4.47047 13.2553 4.35447 12.9953C4.34408 9.83687 4.33366 6.67844 4.32327 3.51998C3.56825 4.20759 2.80372 4.88507 2.02966 5.55241C1.54351 5.7311 1.20545 5.60495 1.01548 5.17396C0.977764 4.99494 1.00897 4.82673 1.1091 4.66935C2.2793 3.61809 3.44951 2.56684 4.61972 1.51558C4.70738 1.48492 4.7906 1.45222 4.86937 1.41746Z" fill="#212121" stroke="#212121" stroke-width="0.3"/>
<path opacity="0.982" fill-rule="evenodd" clip-rule="evenodd" d="M12.0572 1.0036C12.4121 0.974332 12.656 1.12368 12.789 1.45165C12.7989 4.81701 12.8089 8.18234 12.8189 11.5477C13.5416 10.8151 14.2734 10.0932 15.0143 9.38213C15.4797 9.19174 15.8032 9.32616 15.9851 9.78538C16.0212 9.97613 15.9913 10.1553 15.8955 10.323C14.7753 11.4432 13.6552 12.5633 12.5351 13.6834C12.2708 13.8271 12.0119 13.8172 11.7585 13.6535C10.6583 12.5533 9.55804 11.4531 8.45784 10.3529C8.25469 9.97475 8.31939 9.65117 8.65199 9.38213C8.89564 9.2763 9.1346 9.28628 9.36887 9.412C10.0808 10.1239 10.7927 10.8358 11.5046 11.5477C11.5145 8.19232 11.5245 4.8369 11.5344 1.48152C11.6199 1.2217 11.7941 1.06239 12.0572 1.0036Z" fill="#212121" stroke="#212121" stroke-width="0.3"/>
</svg>
