<svg width="645" height="176" viewBox="0 0 645 176" fill="none" xmlns="http://www.w3.org/2000/svg">
<path d="M215.895 95.7462C210.548 104.197 203.133 111.197 194.368 116.027C185.896 120.696 176.174 123.353 165.851 123.353C149.505 123.353 134.705 116.727 123.992 106.014C113.279 95.3016 106.653 80.5015 106.653 64.1553C106.653 47.8098 113.279 33.0096 123.992 22.2967C134.705 11.5835 149.506 4.9567 165.851 4.9567C176.175 4.9567 185.896 7.61458 194.368 12.2832C196.658 13.5451 198.857 14.9559 200.949 16.5016L190.692 26.7597C189.653 26.0687 188.585 25.4193 187.487 24.8144C181.085 21.2867 173.711 19.2782 165.851 19.2782C153.458 19.2782 142.237 24.3014 134.117 32.4218C125.997 40.5422 120.974 51.7624 120.974 64.1557C120.974 76.5493 125.996 87.7691 134.117 95.8895C142.237 104.009 153.458 109.033 165.851 109.033C173.711 109.033 181.085 107.025 187.487 103.497C194.147 99.8262 199.771 94.5252 203.812 88.1388L215.895 95.7469L215.895 95.7462Z" fill="#FFCC00"/>
<path d="M203.812 122.359V44.5776C203.812 33.6746 208.267 23.7673 215.444 16.5893C222.622 9.41209 232.529 4.9559 243.432 4.9559C254.334 4.9559 264.242 9.41171 271.42 16.5893C273.06 18.2292 274.558 20.012 275.893 21.9161C277.228 20.012 278.726 18.2292 280.365 16.5893C287.542 9.41209 297.45 4.9559 308.353 4.9559C319.255 4.9559 329.163 9.41171 336.341 16.5893C343.519 23.7665 347.974 33.6742 347.974 44.5776V122.359H333.653V44.5776C333.653 37.6272 330.804 31.3028 326.216 26.7144C321.628 22.1259 315.304 19.2774 308.353 19.2774C301.403 19.2774 295.079 22.1266 290.491 26.7144C285.902 31.3032 283.054 37.6269 283.054 44.5776V122.359H268.733V44.5776C268.733 37.6272 265.883 31.3028 261.296 26.7144C256.707 22.1259 250.383 19.2774 243.432 19.2774C236.483 19.2774 230.158 22.1266 225.57 26.7144C220.981 31.3032 218.133 37.6269 218.133 44.5776V122.359H203.812H203.812Z" fill="#FFCC00"/>
<path d="M357.688 80.8568H365.395V115.838H387.095V122.359H357.688V80.8568ZM393.202 80.8568H400.909V122.359H393.202V80.8568ZM440.455 101.134H447.747V117.675C445.613 119.375 443.123 120.679 440.277 121.588C437.431 122.498 434.506 122.952 431.502 122.952C427.273 122.952 423.459 122.033 420.06 120.195C416.66 118.357 413.992 115.817 412.056 112.576C410.119 109.335 409.151 105.679 409.151 101.608C409.151 97.5369 410.119 93.8806 412.056 90.6398C413.992 87.3986 416.67 84.859 420.089 83.021C423.508 81.1831 427.352 80.2641 431.621 80.2641C435.099 80.2641 438.261 80.8372 441.107 81.9834C443.953 83.1295 446.344 84.8095 448.281 87.0228L443.419 91.7659C440.258 88.6041 436.443 87.0228 431.977 87.0228C429.052 87.0228 426.453 87.6356 424.18 88.8608C421.907 90.086 420.129 91.8052 418.844 94.0186C417.56 96.2319 416.917 98.7621 416.917 101.607C416.917 104.375 417.56 106.864 418.844 109.078C420.129 111.291 421.907 113.03 424.18 114.295C426.453 115.56 429.032 116.192 431.918 116.192C435.158 116.192 438.005 115.481 440.455 114.058V101.133L440.455 101.134ZM494.763 80.8568V122.359H487.056V104.573H465.593V122.359H457.886V80.8568H465.593V97.9913H487.056V80.8568H494.763ZM514.328 87.3789H500.573V80.8568H535.791V87.3789H522.036V122.359H514.328V87.3789ZM541.602 80.8568H549.309V122.359H541.602V80.8568ZM597.392 80.8568V122.359H591.048L568.163 94.2567V122.359H560.515V80.8568H566.858L589.744 108.96V80.8568H597.392ZM636.878 101.134H644.171V117.675C642.036 119.375 639.546 120.679 636.701 121.588C633.854 122.498 630.93 122.952 627.926 122.952C623.697 122.952 619.883 122.033 616.483 120.195C613.084 118.357 610.416 115.817 608.479 112.576C606.542 109.335 605.574 105.679 605.574 101.608C605.574 97.5369 606.542 93.8806 608.479 90.6398C610.416 87.3986 613.094 84.859 616.513 83.021C619.932 81.1831 623.776 80.2641 628.045 80.2641C631.523 80.2641 634.685 80.8372 637.531 81.9834C640.377 83.1295 642.768 84.8095 644.705 87.0228L639.843 91.7659C636.681 88.6041 632.867 87.0228 628.4 87.0228C625.476 87.0228 622.877 87.6356 620.604 88.8608C618.331 90.086 616.553 91.8052 615.268 94.0186C613.983 96.2319 613.341 98.7621 613.341 101.607C613.341 104.375 613.983 106.864 615.268 109.078C616.553 111.291 618.331 113.03 620.604 114.295C622.877 115.56 625.455 116.192 628.341 116.192C631.582 116.192 634.428 115.481 636.879 114.058V101.133L636.878 101.134Z" fill="black"/>
<path d="M13.5942 161.332H16.88C16.7942 163.073 16.4347 164.576 15.8008 165.836C15.1611 167.095 14.2403 168.064 13.0276 168.736C11.8205 169.407 10.3145 169.746 8.50408 169.746C7.20594 169.746 6.02877 169.496 4.98692 168.997C3.93866 168.497 3.04197 167.779 2.29839 166.846C1.55482 165.913 0.982109 164.784 0.591608 163.477C0.195058 162.164 0 160.684 0 159.05V154.361C0 152.739 0.20149 151.266 0.597662 149.952C1.00026 148.645 1.57902 147.515 2.33507 146.583C3.09112 145.65 4.01124 144.931 5.1026 144.432C6.18754 143.932 7.42519 143.683 8.80915 143.683C10.4978 143.683 11.9298 144.01 13.1005 144.669C14.2765 145.323 15.1793 146.279 15.8132 147.54C16.4532 148.805 16.8071 150.345 16.88 152.169H13.5942C13.5088 150.831 13.2956 149.744 12.9482 148.901C12.6068 148.056 12.0946 147.439 11.4243 147.035C10.7473 146.637 9.87594 146.434 8.80915 146.434C7.8516 146.434 7.02902 146.619 6.33383 146.993C5.63864 147.362 5.06593 147.897 4.62138 148.586C4.16963 149.275 3.84075 150.107 3.61506 151.076C3.39619 152.049 3.28617 153.131 3.28617 154.326V159.05C3.28617 160.166 3.37729 161.207 3.56668 162.169C3.74965 163.132 4.04866 163.976 4.45693 164.707C4.87125 165.432 5.40805 165.996 6.07187 166.4C6.74249 166.81 7.54729 167.012 8.50445 167.012C9.70544 167.012 10.6566 166.822 11.3639 166.436C12.0647 166.055 12.5826 165.444 12.924 164.606C13.2593 163.774 13.4853 162.68 13.5946 161.332H13.5942ZM38.4147 157.517H33.1299L33.0932 154.819H38.0064C38.744 154.819 39.3957 154.659 39.9695 154.332C40.5426 154.005 40.9872 153.541 41.316 152.935C41.6457 152.323 41.8097 151.598 41.8097 150.754C41.8097 149.827 41.6702 149.067 41.3894 148.484C41.1089 147.902 40.6881 147.469 40.1219 147.201C39.5544 146.928 38.8354 146.791 37.9701 146.791H33.8243V169.389H30.5389V144.04H37.9701C39.0849 144.04 40.0852 144.171 40.9686 144.432C41.8468 144.693 42.5964 145.098 43.2122 145.65C43.822 146.197 44.2907 146.897 44.6139 147.742C44.9311 148.592 45.0955 149.601 45.0955 150.784C45.0955 151.829 44.8521 152.769 44.3701 153.612C43.8881 154.451 43.2179 155.139 42.3586 155.674C41.5051 156.203 40.5177 156.548 39.3957 156.696L38.4147 157.516V157.517ZM38.2869 169.389H31.7701L33.6841 166.656H38.2869C39.1465 166.656 39.8712 166.471 40.4689 166.097C41.0665 165.722 41.5171 165.2 41.8343 164.516C42.1515 163.839 42.3099 163.031 42.3099 162.104C42.3099 161.159 42.176 160.345 41.9137 159.661C41.6513 158.978 41.2367 158.449 40.6639 158.075C40.0909 157.701 39.3416 157.516 38.4147 157.516H34.1842L34.2209 154.819H39.9325L40.6639 155.793C41.7368 155.9 42.6395 156.245 43.371 156.826C44.1028 157.415 44.6574 158.163 45.029 159.067C45.407 159.976 45.5961 160.974 45.5961 162.068C45.5961 163.648 45.291 164.979 44.6937 166.066C44.09 167.154 43.2428 167.98 42.1451 168.545C41.0544 169.109 39.768 169.388 38.2869 169.388V169.389ZM73.7201 166.656V169.389H62.4311V166.656H73.7201ZM63.0223 144.04V169.389H59.7369V144.04H63.0223ZM72.2027 154.926V157.659H62.4311V154.926H72.2027ZM73.5436 144.04V146.792H62.4311V144.04H73.5436ZM95.8649 144.04V169.389H92.6157V144.04H95.8649ZM102.704 144.04V146.792H85.7943V144.04H102.704ZM132.188 154.522V158.925C132.188 160.714 131.993 162.288 131.591 163.638C131.195 164.992 130.615 166.121 129.853 167.03C129.091 167.934 128.171 168.611 127.098 169.069C126.031 169.52 124.818 169.746 123.477 169.746C122.178 169.746 120.989 169.52 119.923 169.069C118.85 168.611 117.93 167.934 117.155 167.03C116.381 166.121 115.778 164.992 115.357 163.638C114.937 162.289 114.723 160.714 114.723 158.925V154.522C114.723 152.734 114.93 151.159 115.351 149.81C115.766 148.455 116.363 147.326 117.137 146.417C117.911 145.513 118.832 144.831 119.905 144.373C120.978 143.915 122.16 143.683 123.459 143.683C124.799 143.683 126.013 143.915 127.092 144.373C128.17 144.831 129.085 145.513 129.841 146.417C130.597 147.326 131.176 148.455 131.584 149.81C131.987 151.159 132.188 152.733 132.188 154.522ZM128.939 158.925V154.487C128.939 153.09 128.823 151.89 128.586 150.886C128.348 149.882 127.994 149.061 127.531 148.42C127.068 147.783 126.495 147.309 125.818 146.999C125.135 146.69 124.349 146.536 123.459 146.536C122.612 146.536 121.856 146.69 121.179 146.999C120.508 147.309 119.936 147.784 119.46 148.42C118.978 149.061 118.613 149.881 118.357 150.886C118.101 151.89 117.973 153.09 117.973 154.487V158.925C117.973 160.334 118.101 161.54 118.357 162.544C118.613 163.548 118.985 164.374 119.466 165.016C119.948 165.664 120.527 166.139 121.209 166.448C121.886 166.757 122.642 166.906 123.477 166.906C124.367 166.906 125.16 166.757 125.842 166.448C126.525 166.139 127.098 165.663 127.556 165.016C128.012 164.374 128.36 163.548 128.591 162.544C128.823 161.54 128.939 160.334 128.939 158.925ZM163.196 166.656V169.39H146.889V166.656H163.196ZM147.389 166.656V175.628H144.122L144.103 166.656H147.389ZM166.055 166.656L166.018 175.61H162.769V166.656H166.055ZM160.123 144.041V146.792H150.693V144.041H160.123ZM163.001 144.041V169.39H159.715V144.041H163.001ZM149.571 144.041H152.857L152.388 154.244C152.332 155.776 152.211 157.191 152.034 158.48C151.857 159.776 151.625 160.958 151.345 162.027C151.065 163.091 150.748 164.048 150.388 164.891C150.034 165.73 149.644 166.454 149.229 167.066C148.815 167.673 148.37 168.172 147.907 168.564C147.444 168.95 146.968 169.229 146.48 169.39H145.103V166.656H146.018C146.28 166.33 146.566 165.86 146.883 165.248C147.194 164.63 147.506 163.834 147.81 162.853C148.115 161.873 148.383 160.673 148.615 159.258C148.847 157.839 149.005 156.169 149.085 154.244L149.572 144.041L149.571 144.041ZM182.713 163.572L192.844 144.041H196.13V169.39H192.844V149.84L182.713 169.39H179.445V144.041H182.713V163.572ZM228.094 154.523V158.926C228.094 160.714 227.899 162.289 227.497 163.638C227.101 164.993 226.522 166.122 225.759 167.031C224.997 167.935 224.077 168.611 223.004 169.069C221.938 169.52 220.724 169.747 219.383 169.747C218.085 169.747 216.896 169.52 215.829 169.069C214.757 168.611 213.836 167.935 213.061 167.031C212.287 166.121 211.684 164.993 211.264 163.638C210.843 162.289 210.629 160.715 210.629 158.926V154.523C210.629 152.734 210.837 151.159 211.258 149.81C211.672 148.456 212.269 147.326 213.043 146.417C213.818 145.514 214.738 144.831 215.811 144.373C216.884 143.915 218.067 143.684 219.365 143.684C220.706 143.684 221.919 143.915 222.998 144.373C224.076 144.831 224.991 145.514 225.747 146.417C226.503 147.327 227.082 148.456 227.491 149.81C227.893 151.159 228.094 152.734 228.094 154.523ZM224.846 158.926V154.487C224.846 153.091 224.729 151.89 224.492 150.886C224.254 149.882 223.9 149.062 223.438 148.42C222.974 147.784 222.401 147.309 221.724 147C221.042 146.691 220.256 146.536 219.365 146.536C218.518 146.536 217.762 146.691 217.086 147C216.415 147.309 215.842 147.784 215.367 148.42C214.885 149.062 214.519 149.882 214.264 150.886C214.007 151.89 213.879 153.091 213.879 154.487V158.926C213.879 160.334 214.007 161.54 214.264 162.544C214.52 163.548 214.891 164.375 215.373 165.017C215.854 165.664 216.433 166.14 217.116 166.448C217.792 166.758 218.548 166.906 219.384 166.906C220.274 166.906 221.066 166.758 221.749 166.448C222.432 166.14 223.005 165.664 223.462 165.017C223.919 164.375 224.267 163.549 224.498 162.544C224.729 161.54 224.846 160.334 224.846 158.926ZM259.102 166.656V169.39H242.796V166.656H259.102ZM243.295 166.656V175.628H240.028L240.009 166.656H243.295ZM261.961 166.656L261.924 175.611H258.675V166.656H261.961ZM256.029 144.041V146.792H246.599V144.041H256.029ZM258.907 144.041V169.39H255.621V144.041H258.907ZM245.478 144.041H248.763L248.294 154.244C248.239 155.776 248.117 157.191 247.94 158.48C247.763 159.776 247.531 160.958 247.251 162.028C246.971 163.091 246.654 164.048 246.294 164.892C245.941 165.73 245.55 166.455 245.136 167.067C244.721 167.673 244.276 168.172 243.813 168.564C243.35 168.951 242.875 169.23 242.387 169.39H241.009V166.657H241.924C242.186 166.33 242.473 165.86 242.79 165.249C243.101 164.631 243.412 163.834 243.716 162.854C244.021 161.874 244.289 160.673 244.521 159.259C244.753 157.839 244.912 156.169 244.991 154.244L245.478 144.041L245.478 144.041ZM289.298 154.927V157.66H278.034V154.927H289.298ZM278.479 144.041V169.39H275.193V144.041H278.479ZM292.213 144.041V169.39H288.927V144.041H292.213ZM324.019 154.523V158.926C324.019 160.715 323.824 162.289 323.422 163.638C323.025 164.993 322.446 166.122 321.684 167.031C320.922 167.935 320.001 168.612 318.929 169.069C317.862 169.521 316.649 169.747 315.308 169.747C314.009 169.747 312.82 169.521 311.754 169.069C310.682 168.612 309.761 167.935 308.986 167.031C308.212 166.121 307.609 164.993 307.188 163.638C306.768 162.289 306.554 160.715 306.554 158.926V154.523C306.554 152.734 306.761 151.16 307.182 149.81C307.597 148.456 308.193 147.327 308.968 146.418C309.742 145.514 310.663 144.831 311.735 144.374C312.808 143.916 313.991 143.684 315.29 143.684C316.631 143.684 317.844 143.916 318.923 144.374C320.001 144.831 320.916 145.514 321.672 146.418C322.428 147.327 323.007 148.456 323.415 149.81C323.818 151.159 324.019 152.734 324.019 154.523ZM320.77 158.926V154.487C320.77 153.091 320.654 151.891 320.416 150.887C320.179 149.883 319.825 149.062 319.362 148.42C318.898 147.784 318.326 147.309 317.649 147C316.966 146.691 316.18 146.537 315.29 146.537C314.443 146.537 313.687 146.691 313.01 147C312.34 147.309 311.767 147.785 311.291 148.42C310.809 149.062 310.444 149.882 310.188 150.887C309.932 151.891 309.804 153.091 309.804 154.487V158.926C309.804 160.334 309.932 161.541 310.188 162.545C310.444 163.549 310.816 164.375 311.297 165.017C311.779 165.664 312.358 166.14 313.04 166.449C313.717 166.758 314.473 166.906 315.308 166.906C316.198 166.906 316.991 166.758 317.674 166.449C318.357 166.14 318.929 165.664 319.386 165.017C319.843 164.375 320.191 163.549 320.422 162.545C320.654 161.541 320.77 160.334 320.77 158.926ZM352.308 166.657V169.39H341.019V166.657H352.308ZM341.61 144.041V169.39H338.325V144.041H341.61ZM350.791 154.927V157.661H341.019V154.927H350.791ZM352.131 144.041V146.793H341.019V144.041H352.131ZM398.594 154.523V158.927C398.594 160.715 398.399 162.289 397.997 163.639C397.601 164.993 397.022 166.122 396.259 167.031C395.497 167.935 394.577 168.612 393.504 169.07C392.438 169.521 391.224 169.748 389.883 169.748C388.585 169.748 387.396 169.521 386.329 169.07C385.257 168.612 384.336 167.935 383.562 167.031C382.787 166.122 382.184 164.993 381.763 163.639C381.343 162.29 381.129 160.715 381.129 158.927V154.523C381.129 152.735 381.337 151.16 381.758 149.811C382.172 148.456 382.769 147.327 383.543 146.418C384.318 145.515 385.238 144.832 386.311 144.374C387.384 143.916 388.566 143.684 389.865 143.684C391.206 143.684 392.419 143.916 393.498 144.374C394.577 144.832 395.491 145.515 396.247 146.418C397.004 147.328 397.582 148.456 397.991 149.811C398.393 151.16 398.594 152.734 398.594 154.523ZM395.346 158.927V154.488C395.346 153.091 395.229 151.891 394.992 150.887C394.754 149.883 394.4 149.062 393.937 148.421C393.474 147.785 392.901 147.31 392.224 147.001C391.541 146.691 390.755 146.537 389.865 146.537C389.018 146.537 388.262 146.691 387.585 147.001C386.915 147.31 386.342 147.785 385.867 148.421C385.385 149.062 385.019 149.883 384.763 150.887C384.507 151.891 384.379 153.091 384.379 154.488V158.927C384.379 160.335 384.507 161.541 384.763 162.545C385.019 163.549 385.391 164.375 385.873 165.017C386.354 165.665 386.933 166.14 387.616 166.449C388.293 166.759 389.048 166.907 389.884 166.907C390.774 166.907 391.566 166.759 392.249 166.449C392.932 166.14 393.504 165.664 393.962 165.017C394.419 164.375 394.766 163.549 394.998 162.545C395.229 161.541 395.346 160.335 395.346 158.927ZM425.92 161.333H429.206C429.12 163.074 428.76 164.578 428.127 165.837C427.487 167.097 426.566 168.066 425.354 168.737C424.147 169.409 422.641 169.748 420.83 169.748C419.532 169.748 418.355 169.497 417.313 168.998C416.264 168.499 415.368 167.781 414.625 166.847C413.881 165.914 413.308 164.786 412.918 163.478C412.521 162.166 412.326 160.685 412.326 159.051V154.363C412.326 152.741 412.528 151.267 412.924 149.954C413.326 148.646 413.905 147.517 414.661 146.585C415.417 145.651 416.337 144.932 417.429 144.433C418.513 143.934 419.751 143.684 421.135 143.684C422.823 143.684 424.256 144.011 425.427 144.671C426.603 145.325 427.505 146.281 428.139 147.541C428.779 148.806 429.133 150.346 429.206 152.17H425.92C425.835 150.833 425.622 149.746 425.274 148.902C424.932 148.058 424.421 147.44 423.75 147.036C423.073 146.638 422.202 146.436 421.135 146.436C420.178 146.436 419.355 146.62 418.66 146.995C417.965 147.363 417.392 147.898 416.947 148.587C416.496 149.276 416.166 150.108 415.941 151.077C415.722 152.051 415.612 153.133 415.612 154.327V159.051C415.612 160.168 415.703 161.208 415.893 162.17C416.076 163.134 416.374 163.977 416.783 164.708C417.197 165.433 417.734 165.998 418.398 166.402C419.069 166.812 419.873 167.014 420.83 167.014C422.031 167.014 422.983 166.824 423.69 166.437C424.39 166.057 424.909 165.445 425.25 164.607C425.585 163.775 425.811 162.682 425.921 161.333H425.92ZM450.741 157.518H445.456L445.419 154.821H450.333C451.07 154.821 451.722 154.66 452.296 154.333C452.869 154.006 453.313 153.543 453.642 152.937C453.972 152.325 454.136 151.6 454.136 150.756C454.136 149.829 453.996 149.068 453.715 148.486C453.435 147.903 453.014 147.47 452.448 147.203C451.881 146.929 451.162 146.793 450.296 146.793H446.15V169.39H442.865V144.041H450.296C451.411 144.041 452.411 144.172 453.295 144.433C454.173 144.695 454.922 145.099 455.538 145.651C456.148 146.198 456.617 146.899 456.94 147.743C457.257 148.593 457.422 149.603 457.422 150.785C457.422 151.831 457.178 152.77 456.696 153.614C456.214 154.452 455.544 155.141 454.685 155.676C453.831 156.205 452.844 156.55 451.722 156.698L450.741 157.518V157.518ZM450.613 169.391H444.096L446.01 166.657H450.613C451.472 166.657 452.197 166.473 452.795 166.098C453.393 165.724 453.843 165.201 454.16 164.518C454.478 163.841 454.636 163.033 454.636 162.105C454.636 161.16 454.502 160.346 454.24 159.663C453.977 158.979 453.563 158.451 452.99 158.077C452.417 157.702 451.667 157.518 450.741 157.518H446.51L446.547 154.82H452.259L452.99 155.794C454.063 155.902 454.966 156.246 455.697 156.828C456.429 157.417 456.983 158.165 457.355 159.068C457.733 159.977 457.922 160.975 457.922 162.069C457.922 163.65 457.617 164.981 457.02 166.068C456.416 167.155 455.569 167.981 454.471 168.546C453.38 169.11 452.094 169.39 450.613 169.39V169.391ZM486.046 166.657V169.391H474.757V166.657H486.046ZM475.348 144.042V169.391H472.063V144.042H475.348ZM484.528 154.927V157.661H474.757V154.927H484.528ZM485.869 144.042V146.793H474.757V144.042H485.869ZM525.777 166.746L525.46 175.487H522.655V169.39H520.455V166.746H525.777L525.777 166.746ZM499.632 144.042H502.936V166.657H509.976V144.042H513.244V166.657H520.223V144.042H523.509V169.391H499.631V144.042H499.632ZM553.48 166.657V169.391H542.191V166.657H553.48ZM542.783 144.042V169.391H539.497V144.042H542.783ZM551.963 154.927V157.661H542.191V154.927H551.963ZM553.304 144.042V146.793H542.191V144.042H553.304ZM581.014 154.927V157.661H569.749V154.927H581.014ZM570.194 144.042V169.391H566.908V144.042H570.194ZM583.928 144.042V169.391H580.642V144.042H583.928ZM602.25 163.574L612.382 144.042H615.667V169.391H612.382V149.841L602.25 169.391H598.983V144.042H602.25V163.574ZM644.706 166.657V169.391H633.416V166.657H644.706ZM634.008 144.042V169.391H630.722V144.042H634.008ZM643.188 154.927V157.661H633.416V154.927H643.188ZM644.529 144.042V146.793H633.416V144.042H644.529Z" fill="black"/>
<path d="M0.000732422 4.95627H44.5032H50.011C66.2952 4.95627 81.0961 11.6152 91.823 22.3429C102.551 33.0701 109.21 47.8717 109.21 64.1549C109.21 80.4395 102.551 95.2404 91.823 105.967C81.0961 116.695 66.2949 123.354 50.011 123.354H44.5032H0.000732422V115.732V12.5777V4.9559V4.95627Z" fill="#FFCC00"/>
<path fill-rule="evenodd" clip-rule="evenodd" d="M66.6317 0L18.5244 64.1549H42.5783V128.31L90.6855 64.1549H66.6317V0Z" fill="black"/>
</svg>
