<svg width="16" height="14" viewBox="0 0 16 14" fill="none" xmlns="http://www.w3.org/2000/svg">
<path opacity="0.971" fill-rule="evenodd" clip-rule="evenodd" d="M14.6439 10.7363C14.2159 11.208 13.7607 11.2271 13.2781 10.7936C13.1605 10.6603 13.0871 10.5066 13.0579 10.3325C13.1828 8.23803 13.3078 6.1436 13.4328 4.04912C9.77795 7.17972 6.12311 10.3103 2.46828 13.4409C1.85245 13.697 1.42371 13.5024 1.18197 12.8569C1.13364 12.5939 1.19347 12.3602 1.36143 12.1558C4.99912 9.00528 8.63675 5.85476 12.2744 2.70426C10.2029 2.51908 8.13121 2.33389 6.05963 2.14872C5.55792 1.95778 5.34082 1.59817 5.40838 1.06986C5.53905 0.701924 5.79909 0.495333 6.18851 0.449982C8.97193 0.698792 11.7554 0.947614 14.5388 1.19642C14.9531 1.32539 15.1934 1.60435 15.2596 2.03322C15.0931 4.82278 14.9267 7.61238 14.7602 10.4019C14.731 10.5205 14.6922 10.632 14.6439 10.7363Z" fill="#212121" stroke="#212121" stroke-width="0.7"/>
</svg>
