<svg width="18" height="18" viewBox="0 0 18 18">
<g opacity="0.972">
<path fill-rule="evenodd" clip-rule="evenodd" d="M-0.0175781 1.70508C-0.0175781 1.55274 -0.0175781 1.40039 -0.0175781 1.24805C0.0724173 0.976649 0.259918 0.806728 0.544922 0.738282C1.42383 0.714843 2.30273 0.714843 3.18164 0.738282C3.41651 0.809062 3.58643 0.955548 3.69141 1.17774C3.9375 1.91602 4.18359 2.6543 4.42969 3.39258C4.50865 3.53022 4.61995 3.62981 4.76367 3.69141C8.87695 3.70311 12.9902 3.71486 17.1035 3.72656C17.6604 3.89665 17.8537 4.26579 17.6836 4.83399C17.0273 6.80274 16.3711 8.77149 15.7148 10.7402C15.6236 10.9838 15.4537 11.142 15.2051 11.2148C12.4512 11.2266 9.69725 11.2383 6.94336 11.25C6.78846 11.2542 6.66541 11.3187 6.57422 11.4434C6.47009 11.7309 6.3822 12.0239 6.31055 12.3223C6.34113 12.4953 6.43489 12.6184 6.5918 12.6914C9.68555 12.7031 12.7793 12.7149 15.873 12.7266C16.3262 12.8521 16.5313 13.1509 16.4883 13.623C16.4121 13.957 16.207 14.1621 15.873 14.2383C12.7558 14.2617 9.63868 14.2617 6.52148 14.2383C5.45157 14.0356 4.87737 13.391 4.79883 12.3047C4.8047 12.2051 4.81054 12.1055 4.81641 12.0059C4.91572 11.5969 5.00948 11.1867 5.09766 10.7754C5.11988 10.5745 5.10817 10.3753 5.0625 10.1777C4.2087 7.59287 3.34151 5.01472 2.46094 2.44336C2.35153 2.32714 2.21677 2.26269 2.05664 2.25C1.54101 2.23828 1.02539 2.22656 0.509766 2.21484C0.245534 2.1322 0.0697532 1.96228 -0.0175781 1.70508Z" />
<path fill-rule="evenodd" clip-rule="evenodd" d="M6.31055 17.9824C6.0879 17.9824 5.86522 17.9824 5.64258 17.9824C4.77267 17.6849 4.39182 17.0755 4.5 16.1543C4.71231 15.4148 5.2045 15.0163 5.97656 14.959C6.82196 15.0193 7.32589 15.4646 7.48828 16.2949C7.52583 17.1645 7.13324 17.727 6.31055 17.9824Z" />
<path fill-rule="evenodd" clip-rule="evenodd" d="M15.3105 17.9824C15.0879 17.9824 14.8652 17.9824 14.6426 17.9824C13.7727 17.6849 13.3918 17.0755 13.5 16.1543C13.7123 15.4148 14.2045 15.0163 14.9766 14.959C15.822 15.0193 16.3259 15.4646 16.4883 16.2949C16.5258 17.1645 16.1332 17.727 15.3105 17.9824Z" />
</g>
</svg>