<svg width="12" height="10" viewBox="0 0 12 10" fill="none" xmlns="http://www.w3.org/2000/svg">
<path opacity="0.962" fill-rule="evenodd" clip-rule="evenodd" d="M10.746 0.722648C11.5498 0.686476 11.8948 1.06405 11.7811 1.85546C11.739 1.95296 11.6868 2.04413 11.6249 2.1289C9.31368 4.44011 7.0025 6.75128 4.69129 9.06249C4.32672 9.29687 3.96211 9.29687 3.59754 9.06249C2.51032 7.97526 1.42305 6.888 0.335825 5.80077C0.0298486 5.36421 0.0624268 4.95405 0.433481 4.5703C0.798052 4.33593 1.16266 4.33593 1.52723 4.5703C2.39364 5.44323 3.26606 6.30913 4.14442 7.16796C6.24676 5.08515 8.34309 2.9953 10.4335 0.898429C10.535 0.828312 10.6392 0.769718 10.746 0.722648Z" fill="#212121"/>
</svg>
