<svg width="12" height="12" viewBox="0 0 12 12">
<path fill-rule="evenodd" clip-rule="evenodd" d="M0.532269 0.26926C0.906778 -0.0961152 1.50657 -0.0887106 1.87195 0.285799L6 4.51705L10.1281 0.285799C10.4934 -0.0887104 11.0932 -0.0961147 11.4677 0.26926C11.8422 0.634635 11.8496 1.23443 11.4843 1.60894L7.32354 5.87369L11.7307 10.3911C12.0961 10.7656 12.0887 11.3654 11.7142 11.7307C11.3397 12.0961 10.7399 12.0887 10.3745 11.7142L6 7.23032L1.62548 11.7142C1.2601 12.0887 0.660308 12.0961 0.285799 11.7307C-0.0887104 11.3654 -0.0961154 10.7656 0.26926 10.3911L4.67646 5.87369L0.515729 1.60894C0.150354 1.23443 0.157759 0.634635 0.532269 0.26926Z"/>
</svg>