<svg width="16" height="20" viewBox="0 0 16 20">
<path opacity="0.989" fill-rule="evenodd" clip-rule="evenodd" d="M7.23811 -0.0195312C7.73292 -0.0195312 8.22768 -0.0195312 8.72249 -0.0195312C11.5009 0.382665 13.4866 1.85402 14.6795 4.39453C15.244 5.80086 15.3743 7.24617 15.0701 8.73047C14.6776 10.2854 14.0787 11.7568 13.2733 13.1445C11.9971 15.332 10.5387 17.3893 8.89827 19.3164C8.70034 19.573 8.47249 19.7943 8.21467 19.9805C8.05842 19.9805 7.90217 19.9805 7.74592 19.9805C7.48811 19.7943 7.26026 19.573 7.06233 19.3164C5.4219 17.3893 3.96354 15.332 2.68733 13.1445C1.88189 11.7568 1.28294 10.2854 0.890455 8.73047C0.384893 5.88273 1.21172 3.50644 3.37092 1.60156C4.50604 0.6955 5.7951 0.155135 7.23811 -0.0195312ZM7.51155 3.61328C9.11135 3.5114 10.3288 4.13641 11.1639 5.48828C11.9267 7.14301 11.6728 8.62086 10.4022 9.92188C9.11182 10.965 7.71858 11.1212 6.22249 10.3906C4.7669 9.46449 4.17444 8.14289 4.44514 6.42578C4.89014 4.8543 5.91229 3.9168 7.51155 3.61328Z" />
</svg>
