<svg width="20" height="21" viewBox="0 0 20 21">
<path fill-rule="evenodd" clip-rule="evenodd" d="M10.3412 0.431733C10.9947 0.439801 11.5179 0.97611 11.5098 1.62961L11.4187 9.01298L18.802 8.92183C19.4555 8.91376 19.9918 9.43699 19.9999 10.0905C20.008 10.744 19.4847 11.2803 18.8312 11.2884L11.3894 11.3802L11.2921 19.2629C11.2841 19.9164 10.7477 20.4396 10.0942 20.4315C9.44073 20.4235 8.91751 19.8872 8.92557 19.2337L9.02217 11.4095L1.19797 11.5061C0.54447 11.5141 0.00815992 10.9909 9.20626e-05 10.3374C-0.00797589 9.6839 0.515253 9.14759 1.16876 9.13952L9.05139 9.0422L9.14327 1.6004C9.15134 0.946894 9.68765 0.423665 10.3412 0.431733Z"/>
</svg>