<svg width="13" height="14" viewBox="0 0 13 14">
<path fill-rule="evenodd" clip-rule="evenodd" d="M6.49987 0.793091C6.84266 0.793091 7.12056 1.07098 7.12056 1.41378V6.3793H12.0861C12.4289 6.3793 12.7068 6.65719 12.7068 6.99999C12.7068 7.34279 12.4289 7.62068 12.0861 7.62068H7.12056V12.5862C7.12056 12.929 6.84266 13.2069 6.49987 13.2069C6.15707 13.2069 5.87918 12.929 5.87918 12.5862V7.62068H0.913658C0.570861 7.62068 0.292969 7.34279 0.292969 6.99999C0.292969 6.65719 0.570861 6.3793 0.913658 6.3793H5.87918V1.41378C5.87918 1.07098 6.15707 0.793091 6.49987 0.793091Z"/>
</svg>
