<svg width="13" height="16" viewBox="0 0 13 16">
<g opacity="0.984">
<path fill-rule="evenodd" clip-rule="evenodd" d="M4.79624 0.640616C6.28771 0.625444 7.77728 0.641069 9.26499 0.687491C9.48934 0.786975 9.61956 0.95885 9.65562 1.20312C9.67124 1.68217 9.67646 2.16133 9.67124 2.64062C10.642 2.6257 11.6107 2.64132 12.5775 2.68749C12.9851 2.91018 13.0944 3.2383 12.9056 3.67187C12.8362 3.79337 12.7372 3.8819 12.6087 3.93749C10.7355 3.97377 8.86053 3.9894 6.98375 3.98437C5.10696 3.9894 3.23196 3.97377 1.35874 3.93749C0.977623 3.70005 0.878667 3.37193 1.06187 2.95312C1.143 2.83155 1.25238 2.74301 1.38999 2.68749C2.35678 2.64132 3.32553 2.6257 4.29624 2.64062C4.28674 2.13972 4.29718 1.63972 4.32749 1.14062C4.39978 0.891365 4.55603 0.7247 4.79624 0.640616ZM5.67125 1.98437C6.54625 1.98437 7.42125 1.98437 8.29625 1.98437C8.29625 2.20312 8.29625 2.42187 8.29625 2.64062C7.42125 2.64062 6.54625 2.64062 5.67125 2.64062C5.67125 2.42187 5.67125 2.20312 5.67125 1.98437Z" />
<path fill-rule="evenodd" clip-rule="evenodd" d="M2.14063 4.64062C2.53916 4.59222 2.81522 4.74847 2.96875 5.10938C2.96934 7.73519 2.99019 10.3602 3.03125 12.9844C3.20178 13.5725 3.59241 13.9007 4.20313 13.9688C6.05728 13.9896 7.91147 13.9896 9.76563 13.9688C10.4792 13.8802 10.8802 13.4792 10.9688 12.7656C10.9792 10.2135 10.9896 7.66147 11 5.10938C11.1809 4.70397 11.4882 4.56334 11.9219 4.6875C12.1194 4.78081 12.2496 4.93184 12.3125 5.14062C12.3333 7.77603 12.3333 10.4115 12.3125 13.0469C12.0781 14.3229 11.3229 15.0781 10.0469 15.3125C8.00522 15.3333 5.96353 15.3333 3.92188 15.3125C2.64572 15.078 1.8905 14.3228 1.65625 13.0469C1.63542 10.4115 1.63542 7.77603 1.65625 5.14062C1.74016 4.89531 1.90162 4.72862 2.14063 4.64062Z" />
<path fill-rule="evenodd" clip-rule="evenodd" d="M5.42188 5.98438C5.86856 5.89756 6.16544 6.06422 6.3125 6.48438C6.33334 8.15103 6.33334 9.81772 6.3125 11.4844C6.17453 11.8999 5.88809 12.0614 5.45312 11.9688C5.21875 11.901 5.06772 11.75 5 11.5156C4.97916 9.81772 4.97916 8.11978 5 6.42188C5.08397 6.21816 5.22459 6.07231 5.42188 5.98438Z" />
<path fill-rule="evenodd" clip-rule="evenodd" d="M8.10938 5.98438C8.51112 5.91178 8.79759 6.05762 8.96875 6.42188C8.98959 8.13022 8.98959 9.83853 8.96875 11.5469C8.76822 11.9508 8.45053 12.081 8.01562 11.9375C7.833 11.8387 7.71322 11.6876 7.65625 11.4844C7.63541 9.81772 7.63541 8.15103 7.65625 6.48438C7.71709 6.23103 7.86813 6.06437 8.10938 5.98438Z" />
</g>
</svg>
