<svg width="20" height="20" viewBox="0 0 20 20">
<path opacity="0.978" fill-rule="evenodd" clip-rule="evenodd" d="M7.59772 -0.0195312C8.13158 -0.0195312 8.66541 -0.0195312 9.19928 -0.0195312C12.2298 0.392125 14.4238 1.96764 15.7813 4.70703C16.8651 7.31027 16.7088 9.83633 15.3126 12.2852C15.0999 12.615 14.872 12.9341 14.629 13.2422C16.2501 14.9414 17.8712 16.6406 19.4922 18.3398C19.818 19.0882 19.6162 19.6351 18.8868 19.9805C18.6915 19.9805 18.4962 19.9805 18.3008 19.9805C18.1812 19.9336 18.064 19.875 17.9493 19.8047C16.3021 18.1055 14.655 16.4062 13.0079 14.707C11.0343 16.0392 8.87936 16.4493 6.54303 15.9375C3.49442 15.1154 1.50874 13.1949 0.585998 10.1758C-0.156524 6.95309 0.670299 4.21219 3.06647 1.95312C4.37502 0.837481 5.88545 0.17993 7.59772 -0.0195312ZM8.26178 2.08984C10.9952 2.19581 12.9028 3.49789 13.9844 5.99609C14.7109 8.23609 14.3203 10.2543 12.8126 12.0508C10.943 13.926 8.74897 14.4403 6.23053 13.5938C4.2951 12.7649 3.07767 11.3261 2.57819 9.27734C2.17162 6.80387 2.94636 4.79215 4.9024 3.24219C5.91393 2.53395 7.03369 2.14983 8.26178 2.08984Z"/>
</svg>
