<svg width="20" height="18" viewBox="0 0 20 18">
<path opacity="0.987" fill-rule="evenodd" clip-rule="evenodd" d="M19.9805 1.32426C19.9805 1.57165 19.9805 1.81905 19.9805 2.06645C18.9357 6.91895 17.8875 11.7757 16.8359 16.6368C16.4937 17.3624 15.9664 17.5252 15.2539 17.125C13.7136 16.013 12.1836 14.8868 10.6641 13.7461C9.83844 14.5066 9.02465 15.2814 8.22266 16.0704C8.00445 16.2407 7.75707 16.3123 7.48047 16.2852C7.58559 14.7225 7.69625 13.16 7.8125 11.5977C10.7154 9.03324 13.593 6.44211 16.4453 3.82426C16.4714 3.7852 16.4714 3.74613 16.4453 3.70707C16.384 3.67356 16.3189 3.6475 16.25 3.62895C16.0898 3.66024 15.94 3.71883 15.8008 3.80473C12.2754 6.00688 8.75324 8.21391 5.23438 10.4258C3.68184 9.93004 2.12585 9.44176 0.566406 8.96098C0.330697 8.87391 0.135384 8.73719 -0.0195312 8.55082C-0.0195312 8.42063 -0.0195312 8.29039 -0.0195312 8.1602C0.0913758 7.96715 0.247626 7.81738 0.449219 7.71098C6.49777 5.36492 12.5525 3.03418 18.6133 0.71879C19.2793 0.479337 19.7351 0.681161 19.9805 1.32426Z"/>
</svg>
