<svg width="20" height="20" viewBox="0 0 20 20">
<path opacity="0.993" fill-rule="evenodd" clip-rule="evenodd" d="M9.27724 0.800805C13.0123 0.679117 15.8834 2.17651 17.8905 5.29299C19.3637 7.9344 19.559 10.6688 18.4765 13.4961C17.2614 16.2425 15.2106 18.0329 12.3241 18.8672C8.7115 19.668 5.63209 18.737 3.08584 16.0742C0.991651 13.5471 0.340611 10.6825 1.13271 7.48049C1.98644 4.66061 3.76378 2.66192 6.46475 1.4844C7.37463 1.12017 8.31213 0.892305 9.27724 0.800805ZM9.86318 4.16018C10.3492 4.16502 10.6552 4.3994 10.7812 4.8633C10.7942 6.46487 10.8072 8.06643 10.8202 9.66799C11.5754 10.4232 12.3306 11.1784 13.0858 11.9336C13.4309 12.487 13.3202 12.9232 12.7538 13.2422C12.454 13.3333 12.1806 13.2813 11.9335 13.086C11.0806 12.2331 10.2278 11.3802 9.3749 10.5274C9.31295 10.4426 9.26084 10.3514 9.21865 10.2539C9.15435 8.45885 9.14131 6.66198 9.17959 4.8633C9.25826 4.4787 9.48611 4.24432 9.86318 4.16018Z"/>
</svg>
