<svg width="20" height="20" viewBox="0 0 20 20" fill="none" xmlns="http://www.w3.org/2000/svg">
<path opacity="0.991" fill-rule="evenodd" clip-rule="evenodd" d="M9.12109 -0.0195312C9.69402 -0.0195312 10.2669 -0.0195312 10.8398 -0.0195312C14.7565 0.470344 17.5495 2.50159 19.2188 6.07422C19.6209 7.05797 19.8748 8.07359 19.9805 9.12109C19.9805 9.69402 19.9805 10.2669 19.9805 10.8398C19.4906 14.7565 17.4593 17.5495 13.8867 19.2188C12.903 19.6209 11.8873 19.8748 10.8398 19.9805C10.2669 19.9805 9.69402 19.9805 9.12109 19.9805C7.5027 19.8225 6.00527 19.3082 4.62891 18.4375C4.56898 18.4014 4.50387 18.3819 4.43359 18.3789C3.16819 18.7746 1.90517 19.1783 0.644531 19.5898C1.02518 18.35 1.42883 17.1065 1.85547 15.8594C0.794527 14.3498 0.169527 12.6766 -0.0195312 10.8398C-0.0195312 10.2669 -0.0195312 9.69402 -0.0195312 9.12109C0.470344 5.20445 2.50159 2.41148 6.07422 0.742188C7.05797 0.339997 8.07359 0.086091 9.12109 -0.0195312ZM5.87891 4.58984C6.16566 4.58336 6.45211 4.58984 6.73828 4.60938C6.83727 4.62953 6.92188 4.67512 6.99219 4.74609C7.42555 5.65816 7.80965 6.58914 8.14453 7.53906C8.09477 7.76238 7.99711 7.96418 7.85156 8.14453C7.6602 8.33238 7.47793 8.5277 7.30469 8.73047C7.18023 8.87883 7.14117 9.04813 7.1875 9.23828C8.13754 10.9434 9.52426 12.1479 11.3477 12.8516C11.5262 12.8862 11.6955 12.8602 11.8555 12.7734C12.1523 12.4507 12.4192 12.1057 12.6562 11.7383C12.786 11.5495 12.9618 11.4323 13.1836 11.3867C14.1397 11.7509 15.0577 12.1936 15.9375 12.7148C16.0906 13.9777 15.5763 14.8436 14.3945 15.3125C13.854 15.546 13.2941 15.6111 12.7148 15.5078C10.5105 15.0603 8.62895 14.0381 7.07031 12.4414C6.31789 11.6388 5.64082 10.7794 5.03906 9.86328C4.62012 9.21867 4.34668 8.51555 4.21875 7.75391C4.10016 6.62504 4.4452 5.66801 5.25391 4.88281C5.45086 4.75168 5.65922 4.65402 5.87891 4.58984Z" fill="white"/>
</svg>
